[
    {
        "deltaTime": 0,
        "channel": 0,
        "type": "channel",
        "subtype": "programChange",
        "programNumber": 0
    },
    {
        "deltaTime": 0,
        "channel": 0,
        "type": "channel",
        "subtype": "controller",
        "controllerType": 121,
        "value": 0
    },
    {
        "deltaTime": 0,
        "channel": 0,
        "type": "channel",
        "subtype": "controller",
        "controllerType": 64,
        "value": 0
    },
    {
        "deltaTime": 0,
        "channel": 0,
        "type": "channel",
        "subtype": "controller",
        "controllerType": 91,
        "value": 48
    },
    {
        "deltaTime": 0,
        "channel": 0,
        "type": "channel",
        "subtype": "controller",
        "controllerType": 10,
        "value": 51
    },
    {
        "deltaTime": 0,
        "channel": 0,
        "type": "channel",
        "subtype": "controller",
        "controllerType": 7,
        "value": 100
    },
    {
        "deltaTime": 0,
        "channel": 0,
        "type": "channel",
        "noteNumber": 85,
        "velocity": 71,
        "subtype": "noteOn"
    },
    {
        "deltaTime": 0,
        "channel": 0,
        "type": "channel",
        "subtype": "controller",
        "controllerType": 121,
        "value": 0
    },
    {
        "deltaTime": 0,
        "channel": 0,
        "type": "channel",
        "subtype": "controller",
        "controllerType": 64,
        "value": 0
    },
    {
        "deltaTime": 0,
        "channel": 0,
        "type": "channel",
        "subtype": "controller",
        "controllerType": 91,
        "value": 48
    },
    {
        "deltaTime": 0,
        "channel": 0,
        "type": "channel",
        "subtype": "controller",
        "controllerType": 10,
        "value": 51
    },
    {
        "deltaTime": 0,
        "channel": 0,
        "type": "channel",
        "subtype": "controller",
        "controllerType": 7,
        "value": 100
    },
    {
        "deltaTime": 0,
        "type": "meta",
        "subtype": "trackName",
        "text": "??"
    },
    {
        "deltaTime": 128,
        "channel": 0,
        "type": "channel",
        "noteNumber": 88,
        "velocity": 71,
        "subtype": "noteOn"
    },
    {
        "deltaTime": 127,
        "channel": 0,
        "type": "channel",
        "noteNumber": 93,
        "velocity": 71,
        "subtype": "noteOn"
    },
    {
        "deltaTime": 705,
        "channel": 0,
        "type": "channel",
        "subtype": "noteOff",
        "noteNumber": 85,
        "velocity": 0
    },
    {
        "deltaTime": 0,
        "channel": 0,
        "type": "channel",
        "subtype": "noteOff",
        "noteNumber": 88,
        "velocity": 0
    },
    {
        "deltaTime": 0,
        "channel": 0,
        "type": "channel",
        "subtype": "noteOff",
        "noteNumber": 93,
        "velocity": 0
    },
    {
        "deltaTime": 960,
        "channel": 0,
        "type": "channel",
        "noteNumber": 85,
        "velocity": 71,
        "subtype": "noteOn"
    },
    {
        "deltaTime": 128,
        "channel": 0,
        "type": "channel",
        "noteNumber": 88,
        "velocity": 71,
        "subtype": "noteOn"
    },
    {
        "deltaTime": 127,
        "channel": 0,
        "type": "channel",
        "noteNumber": 93,
        "velocity": 71,
        "subtype": "noteOn"
    },
    {
        "deltaTime": 705,
        "channel": 0,
        "type": "channel",
        "subtype": "noteOff",
        "noteNumber": 85,
        "velocity": 0
    },
    {
        "deltaTime": 0,
        "channel": 0,
        "type": "channel",
        "subtype": "noteOff",
        "noteNumber": 88,
        "velocity": 0
    },
    {
        "deltaTime": 0,
        "channel": 0,
        "type": "channel",
        "subtype": "noteOff",
        "noteNumber": 93,
        "velocity": 0
    },
    {
        "deltaTime": 960,
        "channel": 0,
        "type": "channel",
        "noteNumber": 87,
        "velocity": 71,
        "subtype": "noteOn"
    },
    {
        "deltaTime": 128,
        "channel": 0,
        "type": "channel",
        "noteNumber": 90,
        "velocity": 71,
        "subtype": "noteOn"
    },
    {
        "deltaTime": 127,
        "channel": 0,
        "type": "channel",
        "noteNumber": 93,
        "velocity": 71,
        "subtype": "noteOn"
    },
    {
        "deltaTime": 705,
        "channel": 0,
        "type": "channel",
        "subtype": "noteOff",
        "noteNumber": 87,
        "velocity": 0
    },
    {
        "deltaTime": 0,
        "channel": 0,
        "type": "channel",
        "subtype": "noteOff",
        "noteNumber": 90,
        "velocity": 0
    },
    {
        "deltaTime": 0,
        "channel": 0,
        "type": "channel",
        "subtype": "noteOff",
        "noteNumber": 93,
        "velocity": 0
    },
    {
        "deltaTime": 960,
        "channel": 0,
        "type": "channel",
        "noteNumber": 87,
        "velocity": 71,
        "subtype": "noteOn"
    },
    {
        "deltaTime": 128,
        "channel": 0,
        "type": "channel",
        "noteNumber": 90,
        "velocity": 71,
        "subtype": "noteOn"
    },
    {
        "deltaTime": 127,
        "channel": 0,
        "type": "channel",
        "noteNumber": 93,
        "velocity": 71,
        "subtype": "noteOn"
    },
    {
        "deltaTime": 705,
        "channel": 0,
        "type": "channel",
        "subtype": "noteOff",
        "noteNumber": 87,
        "velocity": 0
    },
    {
        "deltaTime": 0,
        "channel": 0,
        "type": "channel",
        "subtype": "noteOff",
        "noteNumber": 90,
        "velocity": 0
    },
    {
        "deltaTime": 0,
        "channel": 0,
        "type": "channel",
        "subtype": "noteOff",
        "noteNumber": 93,
        "velocity": 0
    },
    {
        "deltaTime": 960,
        "channel": 0,
        "type": "channel",
        "noteNumber": 86,
        "velocity": 71,
        "subtype": "noteOn"
    },
    {
        "deltaTime": 128,
        "channel": 0,
        "type": "channel",
        "noteNumber": 90,
        "velocity": 71,
        "subtype": "noteOn"
    },
    {
        "deltaTime": 127,
        "channel": 0,
        "type": "channel",
        "noteNumber": 93,
        "velocity": 71,
        "subtype": "noteOn"
    },
    {
        "deltaTime": 705,
        "channel": 0,
        "type": "channel",
        "subtype": "noteOff",
        "noteNumber": 86,
        "velocity": 0
    },
    {
        "deltaTime": 0,
        "channel": 0,
        "type": "channel",
        "subtype": "noteOff",
        "noteNumber": 90,
        "velocity": 0
    },
    {
        "deltaTime": 0,
        "channel": 0,
        "type": "channel",
        "subtype": "noteOff",
        "noteNumber": 93,
        "velocity": 0
    },
    {
        "deltaTime": 960,
        "channel": 0,
        "type": "channel",
        "noteNumber": 86,
        "velocity": 71,
        "subtype": "noteOn"
    },
    {
        "deltaTime": 128,
        "channel": 0,
        "type": "channel",
        "noteNumber": 89,
        "velocity": 71,
        "subtype": "noteOn"
    },
    {
        "deltaTime": 127,
        "channel": 0,
        "type": "channel",
        "noteNumber": 93,
        "velocity": 71,
        "subtype": "noteOn"
    },
    {
        "deltaTime": 705,
        "channel": 0,
        "type": "channel",
        "subtype": "noteOff",
        "noteNumber": 86,
        "velocity": 0
    },
    {
        "deltaTime": 0,
        "channel": 0,
        "type": "channel",
        "subtype": "noteOff",
        "noteNumber": 89,
        "velocity": 0
    },
    {
        "deltaTime": 0,
        "channel": 0,
        "type": "channel",
        "subtype": "noteOff",
        "noteNumber": 93,
        "velocity": 0
    },
    {
        "deltaTime": 960,
        "channel": 0,
        "type": "channel",
        "noteNumber": 85,
        "velocity": 71,
        "subtype": "noteOn"
    },
    {
        "deltaTime": 128,
        "channel": 0,
        "type": "channel",
        "noteNumber": 88,
        "velocity": 71,
        "subtype": "noteOn"
    },
    {
        "deltaTime": 127,
        "channel": 0,
        "type": "channel",
        "noteNumber": 93,
        "velocity": 71,
        "subtype": "noteOn"
    },
    {
        "deltaTime": 705,
        "channel": 0,
        "type": "channel",
        "subtype": "noteOff",
        "noteNumber": 85,
        "velocity": 0
    },
    {
        "deltaTime": 0,
        "channel": 0,
        "type": "channel",
        "subtype": "noteOff",
        "noteNumber": 88,
        "velocity": 0
    },
    {
        "deltaTime": 0,
        "channel": 0,
        "type": "channel",
        "subtype": "noteOff",
        "noteNumber": 93,
        "velocity": 0
    },
    {
        "deltaTime": 960,
        "channel": 0,
        "type": "channel",
        "noteNumber": 83,
        "velocity": 71,
        "subtype": "noteOn"
    },
    {
        "deltaTime": 128,
        "channel": 0,
        "type": "channel",
        "noteNumber": 88,
        "velocity": 71,
        "subtype": "noteOn"
    },
    {
        "deltaTime": 127,
        "channel": 0,
        "type": "channel",
        "noteNumber": 92,
        "velocity": 71,
        "subtype": "noteOn"
    },
    {
        "deltaTime": 705,
        "channel": 0,
        "type": "channel",
        "subtype": "noteOff",
        "noteNumber": 83,
        "velocity": 0
    },
    {
        "deltaTime": 0,
        "channel": 0,
        "type": "channel",
        "subtype": "noteOff",
        "noteNumber": 88,
        "velocity": 0
    },
    {
        "deltaTime": 0,
        "channel": 0,
        "type": "channel",
        "subtype": "noteOff",
        "noteNumber": 92,
        "velocity": 0
    },
    {
        "deltaTime": 960,
        "channel": 0,
        "type": "channel",
        "noteNumber": 81,
        "velocity": 71,
        "subtype": "noteOn"
    },
    {
        "deltaTime": 128,
        "channel": 0,
        "type": "channel",
        "noteNumber": 85,
        "velocity": 71,
        "subtype": "noteOn"
    },
    {
        "deltaTime": 127,
        "channel": 0,
        "type": "channel",
        "noteNumber": 90,
        "velocity": 71,
        "subtype": "noteOn"
    },
    {
        "deltaTime": 705,
        "channel": 0,
        "type": "channel",
        "subtype": "noteOff",
        "noteNumber": 81,
        "velocity": 0
    },
    {
        "deltaTime": 0,
        "channel": 0,
        "type": "channel",
        "subtype": "noteOff",
        "noteNumber": 85,
        "velocity": 0
    },
    {
        "deltaTime": 0,
        "channel": 0,
        "type": "channel",
        "subtype": "noteOff",
        "noteNumber": 90,
        "velocity": 0
    },
    {
        "deltaTime": 960,
        "channel": 0,
        "type": "channel",
        "noteNumber": 81,
        "velocity": 71,
        "subtype": "noteOn"
    },
    {
        "deltaTime": 128,
        "channel": 0,
        "type": "channel",
        "noteNumber": 85,
        "velocity": 71,
        "subtype": "noteOn"
    },
    {
        "deltaTime": 127,
        "channel": 0,
        "type": "channel",
        "noteNumber": 90,
        "velocity": 71,
        "subtype": "noteOn"
    },
    {
        "deltaTime": 705,
        "channel": 0,
        "type": "channel",
        "subtype": "noteOff",
        "noteNumber": 81,
        "velocity": 0
    },
    {
        "deltaTime": 0,
        "channel": 0,
        "type": "channel",
        "subtype": "noteOff",
        "noteNumber": 85,
        "velocity": 0
    },
    {
        "deltaTime": 0,
        "channel": 0,
        "type": "channel",
        "subtype": "noteOff",
        "noteNumber": 90,
        "velocity": 0
    },
    {
        "deltaTime": 960,
        "channel": 0,
        "type": "channel",
        "noteNumber": 83,
        "velocity": 71,
        "subtype": "noteOn"
    },
    {
        "deltaTime": 128,
        "channel": 0,
        "type": "channel",
        "noteNumber": 87,
        "velocity": 71,
        "subtype": "noteOn"
    },
    {
        "deltaTime": 127,
        "channel": 0,
        "type": "channel",
        "noteNumber": 90,
        "velocity": 71,
        "subtype": "noteOn"
    },
    {
        "deltaTime": 705,
        "channel": 0,
        "type": "channel",
        "subtype": "noteOff",
        "noteNumber": 83,
        "velocity": 0
    },
    {
        "deltaTime": 0,
        "channel": 0,
        "type": "channel",
        "subtype": "noteOff",
        "noteNumber": 87,
        "velocity": 0
    },
    {
        "deltaTime": 0,
        "channel": 0,
        "type": "channel",
        "subtype": "noteOff",
        "noteNumber": 90,
        "velocity": 0
    },
    {
        "deltaTime": 960,
        "channel": 0,
        "type": "channel",
        "noteNumber": 83,
        "velocity": 71,
        "subtype": "noteOn"
    },
    {
        "deltaTime": 128,
        "channel": 0,
        "type": "channel",
        "noteNumber": 87,
        "velocity": 71,
        "subtype": "noteOn"
    },
    {
        "deltaTime": 127,
        "channel": 0,
        "type": "channel",
        "noteNumber": 90,
        "velocity": 71,
        "subtype": "noteOn"
    },
    {
        "deltaTime": 705,
        "channel": 0,
        "type": "channel",
        "subtype": "noteOff",
        "noteNumber": 83,
        "velocity": 0
    },
    {
        "deltaTime": 0,
        "channel": 0,
        "type": "channel",
        "subtype": "noteOff",
        "noteNumber": 87,
        "velocity": 0
    },
    {
        "deltaTime": 0,
        "channel": 0,
        "type": "channel",
        "subtype": "noteOff",
        "noteNumber": 90,
        "velocity": 0
    },
    {
        "deltaTime": 960,
        "channel": 0,
        "type": "channel",
        "noteNumber": 81,
        "velocity": 71,
        "subtype": "noteOn"
    },
    {
        "deltaTime": 128,
        "channel": 0,
        "type": "channel",
        "noteNumber": 85,
        "velocity": 71,
        "subtype": "noteOn"
    },
    {
        "deltaTime": 127,
        "channel": 0,
        "type": "channel",
        "noteNumber": 88,
        "velocity": 71,
        "subtype": "noteOn"
    },
    {
        "deltaTime": 705,
        "channel": 0,
        "type": "channel",
        "subtype": "noteOff",
        "noteNumber": 81,
        "velocity": 0
    },
    {
        "deltaTime": 0,
        "channel": 0,
        "type": "channel",
        "subtype": "noteOff",
        "noteNumber": 85,
        "velocity": 0
    },
    {
        "deltaTime": 0,
        "channel": 0,
        "type": "channel",
        "subtype": "noteOff",
        "noteNumber": 88,
        "velocity": 0
    },
    {
        "deltaTime": 960,
        "channel": 0,
        "type": "channel",
        "noteNumber": 81,
        "velocity": 71,
        "subtype": "noteOn"
    },
    {
        "deltaTime": 128,
        "channel": 0,
        "type": "channel",
        "noteNumber": 85,
        "velocity": 71,
        "subtype": "noteOn"
    },
    {
        "deltaTime": 127,
        "channel": 0,
        "type": "channel",
        "noteNumber": 88,
        "velocity": 71,
        "subtype": "noteOn"
    },
    {
        "deltaTime": 705,
        "channel": 0,
        "type": "channel",
        "subtype": "noteOff",
        "noteNumber": 81,
        "velocity": 0
    },
    {
        "deltaTime": 0,
        "channel": 0,
        "type": "channel",
        "subtype": "noteOff",
        "noteNumber": 85,
        "velocity": 0
    },
    {
        "deltaTime": 0,
        "channel": 0,
        "type": "channel",
        "subtype": "noteOff",
        "noteNumber": 88,
        "velocity": 0
    },
    {
        "deltaTime": 960,
        "channel": 0,
        "type": "channel",
        "noteNumber": 83,
        "velocity": 72,
        "subtype": "noteOn"
    },
    {
        "deltaTime": 128,
        "channel": 0,
        "type": "channel",
        "noteNumber": 86,
        "velocity": 72,
        "subtype": "noteOn"
    },
    {
        "deltaTime": 127,
        "channel": 0,
        "type": "channel",
        "noteNumber": 88,
        "velocity": 72,
        "subtype": "noteOn"
    },
    {
        "deltaTime": 128,
        "channel": 0,
        "type": "channel",
        "noteNumber": 92,
        "velocity": 72,
        "subtype": "noteOn"
    },
    {
        "deltaTime": 577,
        "channel": 0,
        "type": "channel",
        "subtype": "noteOff",
        "noteNumber": 83,
        "velocity": 0
    },
    {
        "deltaTime": 0,
        "channel": 0,
        "type": "channel",
        "subtype": "noteOff",
        "noteNumber": 86,
        "velocity": 0
    },
    {
        "deltaTime": 0,
        "channel": 0,
        "type": "channel",
        "subtype": "noteOff",
        "noteNumber": 88,
        "velocity": 0
    },
    {
        "deltaTime": 0,
        "channel": 0,
        "type": "channel",
        "subtype": "noteOff",
        "noteNumber": 92,
        "velocity": 0
    },
    {
        "deltaTime": 2880,
        "channel": 0,
        "type": "channel",
        "noteNumber": 85,
        "velocity": 61,
        "subtype": "noteOn"
    },
    {
        "deltaTime": 0,
        "channel": 0,
        "type": "channel",
        "noteNumber": 45,
        "velocity": 71,
        "subtype": "noteOn"
    },
    {
        "deltaTime": 128,
        "channel": 0,
        "type": "channel",
        "noteNumber": 88,
        "velocity": 61,
        "subtype": "noteOn"
    },
    {
        "deltaTime": 127,
        "channel": 0,
        "type": "channel",
        "noteNumber": 93,
        "velocity": 61,
        "subtype": "noteOn"
    },
    {
        "deltaTime": 225,
        "channel": 0,
        "type": "channel",
        "subtype": "noteOff",
        "noteNumber": 45,
        "velocity": 0
    },
    {
        "deltaTime": 0,
        "channel": 0,
        "type": "channel",
        "noteNumber": 52,
        "velocity": 74,
        "subtype": "noteOn"
    },
    {
        "deltaTime": 480,
        "channel": 0,
        "type": "channel",
        "subtype": "noteOff",
        "noteNumber": 85,
        "velocity": 0
    },
    {
        "deltaTime": 0,
        "channel": 0,
        "type": "channel",
        "subtype": "noteOff",
        "noteNumber": 88,
        "velocity": 0
    },
    {
        "deltaTime": 0,
        "channel": 0,
        "type": "channel",
        "subtype": "noteOff",
        "noteNumber": 93,
        "velocity": 0
    },
    {
        "deltaTime": 0,
        "channel": 0,
        "type": "channel",
        "subtype": "noteOff",
        "noteNumber": 52,
        "velocity": 0
    },
    {
        "deltaTime": 0,
        "channel": 0,
        "type": "channel",
        "noteNumber": 57,
        "velocity": 78,
        "subtype": "noteOn"
    },
    {
        "deltaTime": 480,
        "channel": 0,
        "type": "channel",
        "subtype": "noteOff",
        "noteNumber": 57,
        "velocity": 0
    },
    {
        "deltaTime": 0,
        "channel": 0,
        "type": "channel",
        "noteNumber": 52,
        "velocity": 71,
        "subtype": "noteOn"
    },
    {
        "deltaTime": 480,
        "channel": 0,
        "type": "channel",
        "subtype": "noteOff",
        "noteNumber": 52,
        "velocity": 0
    },
    {
        "deltaTime": 0,
        "channel": 0,
        "type": "channel",
        "noteNumber": 85,
        "velocity": 61,
        "subtype": "noteOn"
    },
    {
        "deltaTime": 0,
        "channel": 0,
        "type": "channel",
        "noteNumber": 61,
        "velocity": 81,
        "subtype": "noteOn"
    },
    {
        "deltaTime": 128,
        "channel": 0,
        "type": "channel",
        "noteNumber": 88,
        "velocity": 61,
        "subtype": "noteOn"
    },
    {
        "deltaTime": 127,
        "channel": 0,
        "type": "channel",
        "noteNumber": 93,
        "velocity": 61,
        "subtype": "noteOn"
    },
    {
        "deltaTime": 225,
        "channel": 0,
        "type": "channel",
        "subtype": "noteOff",
        "noteNumber": 61,
        "velocity": 0
    },
    {
        "deltaTime": 0,
        "channel": 0,
        "type": "channel",
        "noteNumber": 52,
        "velocity": 67,
        "subtype": "noteOn"
    },
    {
        "deltaTime": 480,
        "channel": 0,
        "type": "channel",
        "subtype": "noteOff",
        "noteNumber": 85,
        "velocity": 0
    },
    {
        "deltaTime": 0,
        "channel": 0,
        "type": "channel",
        "subtype": "noteOff",
        "noteNumber": 88,
        "velocity": 0
    },
    {
        "deltaTime": 0,
        "channel": 0,
        "type": "channel",
        "subtype": "noteOff",
        "noteNumber": 93,
        "velocity": 0
    },
    {
        "deltaTime": 0,
        "channel": 0,
        "type": "channel",
        "subtype": "noteOff",
        "noteNumber": 52,
        "velocity": 0
    },
    {
        "deltaTime": 0,
        "channel": 0,
        "type": "channel",
        "noteNumber": 57,
        "velocity": 76,
        "subtype": "noteOn"
    },
    {
        "deltaTime": 480,
        "channel": 0,
        "type": "channel",
        "subtype": "noteOff",
        "noteNumber": 57,
        "velocity": 0
    },
    {
        "deltaTime": 0,
        "channel": 0,
        "type": "channel",
        "noteNumber": 52,
        "velocity": 66,
        "subtype": "noteOn"
    },
    {
        "deltaTime": 480,
        "channel": 0,
        "type": "channel",
        "subtype": "noteOff",
        "noteNumber": 52,
        "velocity": 0
    },
    {
        "deltaTime": 0,
        "channel": 0,
        "type": "channel",
        "noteNumber": 87,
        "velocity": 61,
        "subtype": "noteOn"
    },
    {
        "deltaTime": 0,
        "channel": 0,
        "type": "channel",
        "noteNumber": 45,
        "velocity": 63,
        "subtype": "noteOn"
    },
    {
        "deltaTime": 128,
        "channel": 0,
        "type": "channel",
        "noteNumber": 90,
        "velocity": 61,
        "subtype": "noteOn"
    },
    {
        "deltaTime": 127,
        "channel": 0,
        "type": "channel",
        "noteNumber": 93,
        "velocity": 61,
        "subtype": "noteOn"
    },
    {
        "deltaTime": 225,
        "channel": 0,
        "type": "channel",
        "subtype": "noteOff",
        "noteNumber": 45,
        "velocity": 0
    },
    {
        "deltaTime": 0,
        "channel": 0,
        "type": "channel",
        "noteNumber": 51,
        "velocity": 70,
        "subtype": "noteOn"
    },
    {
        "deltaTime": 480,
        "channel": 0,
        "type": "channel",
        "subtype": "noteOff",
        "noteNumber": 87,
        "velocity": 0
    },
    {
        "deltaTime": 0,
        "channel": 0,
        "type": "channel",
        "subtype": "noteOff",
        "noteNumber": 90,
        "velocity": 0
    },
    {
        "deltaTime": 0,
        "channel": 0,
        "type": "channel",
        "subtype": "noteOff",
        "noteNumber": 93,
        "velocity": 0
    },
    {
        "deltaTime": 0,
        "channel": 0,
        "type": "channel",
        "subtype": "noteOff",
        "noteNumber": 51,
        "velocity": 0
    },
    {
        "deltaTime": 0,
        "channel": 0,
        "type": "channel",
        "noteNumber": 54,
        "velocity": 76,
        "subtype": "noteOn"
    },
    {
        "deltaTime": 480,
        "channel": 0,
        "type": "channel",
        "subtype": "noteOff",
        "noteNumber": 54,
        "velocity": 0
    },
    {
        "deltaTime": 0,
        "channel": 0,
        "type": "channel",
        "noteNumber": 51,
        "velocity": 70,
        "subtype": "noteOn"
    },
    {
        "deltaTime": 480,
        "channel": 0,
        "type": "channel",
        "subtype": "noteOff",
        "noteNumber": 51,
        "velocity": 0
    },
    {
        "deltaTime": 0,
        "channel": 0,
        "type": "channel",
        "noteNumber": 87,
        "velocity": 61,
        "subtype": "noteOn"
    },
    {
        "deltaTime": 0,
        "channel": 0,
        "type": "channel",
        "noteNumber": 57,
        "velocity": 80,
        "subtype": "noteOn"
    },
    {
        "deltaTime": 128,
        "channel": 0,
        "type": "channel",
        "noteNumber": 90,
        "velocity": 61,
        "subtype": "noteOn"
    },
    {
        "deltaTime": 127,
        "channel": 0,
        "type": "channel",
        "noteNumber": 93,
        "velocity": 61,
        "subtype": "noteOn"
    },
    {
        "deltaTime": 225,
        "channel": 0,
        "type": "channel",
        "subtype": "noteOff",
        "noteNumber": 57,
        "velocity": 0
    },
    {
        "deltaTime": 0,
        "channel": 0,
        "type": "channel",
        "noteNumber": 51,
        "velocity": 68,
        "subtype": "noteOn"
    },
    {
        "deltaTime": 480,
        "channel": 0,
        "type": "channel",
        "subtype": "noteOff",
        "noteNumber": 87,
        "velocity": 0
    },
    {
        "deltaTime": 0,
        "channel": 0,
        "type": "channel",
        "subtype": "noteOff",
        "noteNumber": 90,
        "velocity": 0
    },
    {
        "deltaTime": 0,
        "channel": 0,
        "type": "channel",
        "subtype": "noteOff",
        "noteNumber": 93,
        "velocity": 0
    },
    {
        "deltaTime": 0,
        "channel": 0,
        "type": "channel",
        "subtype": "noteOff",
        "noteNumber": 51,
        "velocity": 0
    },
    {
        "deltaTime": 0,
        "channel": 0,
        "type": "channel",
        "noteNumber": 54,
        "velocity": 74,
        "subtype": "noteOn"
    },
    {
        "deltaTime": 480,
        "channel": 0,
        "type": "channel",
        "subtype": "noteOff",
        "noteNumber": 54,
        "velocity": 0
    },
    {
        "deltaTime": 0,
        "channel": 0,
        "type": "channel",
        "noteNumber": 51,
        "velocity": 68,
        "subtype": "noteOn"
    },
    {
        "deltaTime": 480,
        "channel": 0,
        "type": "channel",
        "subtype": "noteOff",
        "noteNumber": 51,
        "velocity": 0
    },
    {
        "deltaTime": 0,
        "channel": 0,
        "type": "channel",
        "noteNumber": 86,
        "velocity": 61,
        "subtype": "noteOn"
    },
    {
        "deltaTime": 0,
        "channel": 0,
        "type": "channel",
        "noteNumber": 45,
        "velocity": 64,
        "subtype": "noteOn"
    },
    {
        "deltaTime": 128,
        "channel": 0,
        "type": "channel",
        "noteNumber": 90,
        "velocity": 61,
        "subtype": "noteOn"
    },
    {
        "deltaTime": 127,
        "channel": 0,
        "type": "channel",
        "noteNumber": 93,
        "velocity": 61,
        "subtype": "noteOn"
    },
    {
        "deltaTime": 225,
        "channel": 0,
        "type": "channel",
        "subtype": "noteOff",
        "noteNumber": 45,
        "velocity": 0
    },
    {
        "deltaTime": 0,
        "channel": 0,
        "type": "channel",
        "noteNumber": 50,
        "velocity": 71,
        "subtype": "noteOn"
    },
    {
        "deltaTime": 480,
        "channel": 0,
        "type": "channel",
        "subtype": "noteOff",
        "noteNumber": 86,
        "velocity": 0
    },
    {
        "deltaTime": 0,
        "channel": 0,
        "type": "channel",
        "subtype": "noteOff",
        "noteNumber": 90,
        "velocity": 0
    },
    {
        "deltaTime": 0,
        "channel": 0,
        "type": "channel",
        "subtype": "noteOff",
        "noteNumber": 93,
        "velocity": 0
    },
    {
        "deltaTime": 0,
        "channel": 0,
        "type": "channel",
        "subtype": "noteOff",
        "noteNumber": 50,
        "velocity": 0
    },
    {
        "deltaTime": 0,
        "channel": 0,
        "type": "channel",
        "noteNumber": 53,
        "velocity": 76,
        "subtype": "noteOn"
    },
    {
        "deltaTime": 480,
        "channel": 0,
        "type": "channel",
        "subtype": "noteOff",
        "noteNumber": 53,
        "velocity": 0
    },
    {
        "deltaTime": 0,
        "channel": 0,
        "type": "channel",
        "noteNumber": 50,
        "velocity": 70,
        "subtype": "noteOn"
    },
    {
        "deltaTime": 480,
        "channel": 0,
        "type": "channel",
        "subtype": "noteOff",
        "noteNumber": 50,
        "velocity": 0
    },
    {
        "deltaTime": 0,
        "channel": 0,
        "type": "channel",
        "noteNumber": 86,
        "velocity": 61,
        "subtype": "noteOn"
    },
    {
        "deltaTime": 0,
        "channel": 0,
        "type": "channel",
        "noteNumber": 57,
        "velocity": 81,
        "subtype": "noteOn"
    },
    {
        "deltaTime": 128,
        "channel": 0,
        "type": "channel",
        "noteNumber": 89,
        "velocity": 61,
        "subtype": "noteOn"
    },
    {
        "deltaTime": 127,
        "channel": 0,
        "type": "channel",
        "noteNumber": 93,
        "velocity": 61,
        "subtype": "noteOn"
    },
    {
        "deltaTime": 225,
        "channel": 0,
        "type": "channel",
        "subtype": "noteOff",
        "noteNumber": 57,
        "velocity": 0
    },
    {
        "deltaTime": 0,
        "channel": 0,
        "type": "channel",
        "noteNumber": 50,
        "velocity": 68,
        "subtype": "noteOn"
    },
    {
        "deltaTime": 480,
        "channel": 0,
        "type": "channel",
        "subtype": "noteOff",
        "noteNumber": 86,
        "velocity": 0
    },
    {
        "deltaTime": 0,
        "channel": 0,
        "type": "channel",
        "subtype": "noteOff",
        "noteNumber": 89,
        "velocity": 0
    },
    {
        "deltaTime": 0,
        "channel": 0,
        "type": "channel",
        "subtype": "noteOff",
        "noteNumber": 93,
        "velocity": 0
    },
    {
        "deltaTime": 0,
        "channel": 0,
        "type": "channel",
        "subtype": "noteOff",
        "noteNumber": 50,
        "velocity": 0
    },
    {
        "deltaTime": 0,
        "channel": 0,
        "type": "channel",
        "noteNumber": 53,
        "velocity": 73,
        "subtype": "noteOn"
    },
    {
        "deltaTime": 480,
        "channel": 0,
        "type": "channel",
        "subtype": "noteOff",
        "noteNumber": 53,
        "velocity": 0
    },
    {
        "deltaTime": 0,
        "channel": 0,
        "type": "channel",
        "noteNumber": 50,
        "velocity": 68,
        "subtype": "noteOn"
    },
    {
        "deltaTime": 480,
        "channel": 0,
        "type": "channel",
        "subtype": "noteOff",
        "noteNumber": 50,
        "velocity": 0
    },
    {
        "deltaTime": 0,
        "channel": 0,
        "type": "channel",
        "noteNumber": 85,
        "velocity": 61,
        "subtype": "noteOn"
    },
    {
        "deltaTime": 0,
        "channel": 0,
        "type": "channel",
        "noteNumber": 40,
        "velocity": 63,
        "subtype": "noteOn"
    },
    {
        "deltaTime": 128,
        "channel": 0,
        "type": "channel",
        "noteNumber": 88,
        "velocity": 61,
        "subtype": "noteOn"
    },
    {
        "deltaTime": 127,
        "channel": 0,
        "type": "channel",
        "noteNumber": 93,
        "velocity": 61,
        "subtype": "noteOn"
    },
    {
        "deltaTime": 225,
        "channel": 0,
        "type": "channel",
        "subtype": "noteOff",
        "noteNumber": 40,
        "velocity": 0
    },
    {
        "deltaTime": 0,
        "channel": 0,
        "type": "channel",
        "noteNumber": 49,
        "velocity": 72,
        "subtype": "noteOn"
    },
    {
        "deltaTime": 480,
        "channel": 0,
        "type": "channel",
        "subtype": "noteOff",
        "noteNumber": 85,
        "velocity": 0
    },
    {
        "deltaTime": 0,
        "channel": 0,
        "type": "channel",
        "subtype": "noteOff",
        "noteNumber": 88,
        "velocity": 0
    },
    {
        "deltaTime": 0,
        "channel": 0,
        "type": "channel",
        "subtype": "noteOff",
        "noteNumber": 93,
        "velocity": 0
    },
    {
        "deltaTime": 0,
        "channel": 0,
        "type": "channel",
        "subtype": "noteOff",
        "noteNumber": 49,
        "velocity": 0
    },
    {
        "deltaTime": 0,
        "channel": 0,
        "type": "channel",
        "noteNumber": 52,
        "velocity": 77,
        "subtype": "noteOn"
    },
    {
        "deltaTime": 480,
        "channel": 0,
        "type": "channel",
        "subtype": "noteOff",
        "noteNumber": 52,
        "velocity": 0
    },
    {
        "deltaTime": 0,
        "channel": 0,
        "type": "channel",
        "noteNumber": 57,
        "velocity": 81,
        "subtype": "noteOn"
    },
    {
        "deltaTime": 480,
        "channel": 0,
        "type": "channel",
        "subtype": "noteOff",
        "noteNumber": 57,
        "velocity": 0
    },
    {
        "deltaTime": 0,
        "channel": 0,
        "type": "channel",
        "noteNumber": 83,
        "velocity": 61,
        "subtype": "noteOn"
    },
    {
        "deltaTime": 0,
        "channel": 0,
        "type": "channel",
        "noteNumber": 56,
        "velocity": 79,
        "subtype": "noteOn"
    },
    {
        "deltaTime": 128,
        "channel": 0,
        "type": "channel",
        "noteNumber": 88,
        "velocity": 61,
        "subtype": "noteOn"
    },
    {
        "deltaTime": 127,
        "channel": 0,
        "type": "channel",
        "noteNumber": 92,
        "velocity": 61,
        "subtype": "noteOn"
    },
    {
        "deltaTime": 225,
        "channel": 0,
        "type": "channel",
        "subtype": "noteOff",
        "noteNumber": 56,
        "velocity": 0
    },
    {
        "deltaTime": 0,
        "channel": 0,
        "type": "channel",
        "noteNumber": 52,
        "velocity": 70,
        "subtype": "noteOn"
    },
    {
        "deltaTime": 480,
        "channel": 0,
        "type": "channel",
        "subtype": "noteOff",
        "noteNumber": 83,
        "velocity": 0
    },
    {
        "deltaTime": 0,
        "channel": 0,
        "type": "channel",
        "subtype": "noteOff",
        "noteNumber": 88,
        "velocity": 0
    },
    {
        "deltaTime": 0,
        "channel": 0,
        "type": "channel",
        "subtype": "noteOff",
        "noteNumber": 92,
        "velocity": 0
    },
    {
        "deltaTime": 0,
        "channel": 0,
        "type": "channel",
        "subtype": "noteOff",
        "noteNumber": 52,
        "velocity": 0
    },
    {
        "deltaTime": 0,
        "channel": 0,
        "type": "channel",
        "noteNumber": 50,
        "velocity": 67,
        "subtype": "noteOn"
    },
    {
        "deltaTime": 480,
        "channel": 0,
        "type": "channel",
        "subtype": "noteOff",
        "noteNumber": 50,
        "velocity": 0
    },
    {
        "deltaTime": 0,
        "channel": 0,
        "type": "channel",
        "noteNumber": 47,
        "velocity": 65,
        "subtype": "noteOn"
    },
    {
        "deltaTime": 480,
        "channel": 0,
        "type": "channel",
        "subtype": "noteOff",
        "noteNumber": 47,
        "velocity": 0
    },
    {
        "deltaTime": 0,
        "channel": 0,
        "type": "channel",
        "noteNumber": 81,
        "velocity": 60,
        "subtype": "noteOn"
    },
    {
        "deltaTime": 0,
        "channel": 0,
        "type": "channel",
        "noteNumber": 42,
        "velocity": 64,
        "subtype": "noteOn"
    },
    {
        "deltaTime": 128,
        "channel": 0,
        "type": "channel",
        "noteNumber": 85,
        "velocity": 60,
        "subtype": "noteOn"
    },
    {
        "deltaTime": 127,
        "channel": 0,
        "type": "channel",
        "noteNumber": 90,
        "velocity": 60,
        "subtype": "noteOn"
    },
    {
        "deltaTime": 225,
        "channel": 0,
        "type": "channel",
        "subtype": "noteOff",
        "noteNumber": 42,
        "velocity": 0
    },
    {
        "deltaTime": 0,
        "channel": 0,
        "type": "channel",
        "noteNumber": 49,
        "velocity": 72,
        "subtype": "noteOn"
    },
    {
        "deltaTime": 480,
        "channel": 0,
        "type": "channel",
        "subtype": "noteOff",
        "noteNumber": 81,
        "velocity": 0
    },
    {
        "deltaTime": 0,
        "channel": 0,
        "type": "channel",
        "subtype": "noteOff",
        "noteNumber": 85,
        "velocity": 0
    },
    {
        "deltaTime": 0,
        "channel": 0,
        "type": "channel",
        "subtype": "noteOff",
        "noteNumber": 90,
        "velocity": 0
    },
    {
        "deltaTime": 0,
        "channel": 0,
        "type": "channel",
        "subtype": "noteOff",
        "noteNumber": 49,
        "velocity": 0
    },
    {
        "deltaTime": 0,
        "channel": 0,
        "type": "channel",
        "noteNumber": 54,
        "velocity": 80,
        "subtype": "noteOn"
    },
    {
        "deltaTime": 480,
        "channel": 0,
        "type": "channel",
        "subtype": "noteOff",
        "noteNumber": 54,
        "velocity": 0
    },
    {
        "deltaTime": 0,
        "channel": 0,
        "type": "channel",
        "noteNumber": 49,
        "velocity": 70,
        "subtype": "noteOn"
    },
    {
        "deltaTime": 480,
        "channel": 0,
        "type": "channel",
        "subtype": "noteOff",
        "noteNumber": 49,
        "velocity": 0
    },
    {
        "deltaTime": 0,
        "channel": 0,
        "type": "channel",
        "noteNumber": 81,
        "velocity": 61,
        "subtype": "noteOn"
    },
    {
        "deltaTime": 0,
        "channel": 0,
        "type": "channel",
        "noteNumber": 57,
        "velocity": 81,
        "subtype": "noteOn"
    },
    {
        "deltaTime": 128,
        "channel": 0,
        "type": "channel",
        "noteNumber": 85,
        "velocity": 61,
        "subtype": "noteOn"
    },
    {
        "deltaTime": 127,
        "channel": 0,
        "type": "channel",
        "noteNumber": 90,
        "velocity": 61,
        "subtype": "noteOn"
    },
    {
        "deltaTime": 225,
        "channel": 0,
        "type": "channel",
        "subtype": "noteOff",
        "noteNumber": 57,
        "velocity": 0
    },
    {
        "deltaTime": 0,
        "channel": 0,
        "type": "channel",
        "noteNumber": 49,
        "velocity": 68,
        "subtype": "noteOn"
    },
    {
        "deltaTime": 480,
        "channel": 0,
        "type": "channel",
        "subtype": "noteOff",
        "noteNumber": 81,
        "velocity": 0
    },
    {
        "deltaTime": 0,
        "channel": 0,
        "type": "channel",
        "subtype": "noteOff",
        "noteNumber": 85,
        "velocity": 0
    },
    {
        "deltaTime": 0,
        "channel": 0,
        "type": "channel",
        "subtype": "noteOff",
        "noteNumber": 90,
        "velocity": 0
    },
    {
        "deltaTime": 0,
        "channel": 0,
        "type": "channel",
        "subtype": "noteOff",
        "noteNumber": 49,
        "velocity": 0
    },
    {
        "deltaTime": 0,
        "channel": 0,
        "type": "channel",
        "noteNumber": 54,
        "velocity": 76,
        "subtype": "noteOn"
    },
    {
        "deltaTime": 480,
        "channel": 0,
        "type": "channel",
        "subtype": "noteOff",
        "noteNumber": 54,
        "velocity": 0
    },
    {
        "deltaTime": 0,
        "channel": 0,
        "type": "channel",
        "noteNumber": 49,
        "velocity": 67,
        "subtype": "noteOn"
    },
    {
        "deltaTime": 480,
        "channel": 0,
        "type": "channel",
        "subtype": "noteOff",
        "noteNumber": 49,
        "velocity": 0
    },
    {
        "deltaTime": 0,
        "channel": 0,
        "type": "channel",
        "noteNumber": 83,
        "velocity": 61,
        "subtype": "noteOn"
    },
    {
        "deltaTime": 0,
        "channel": 0,
        "type": "channel",
        "noteNumber": 47,
        "velocity": 66,
        "subtype": "noteOn"
    },
    {
        "deltaTime": 128,
        "channel": 0,
        "type": "channel",
        "noteNumber": 87,
        "velocity": 61,
        "subtype": "noteOn"
    },
    {
        "deltaTime": 127,
        "channel": 0,
        "type": "channel",
        "noteNumber": 90,
        "velocity": 61,
        "subtype": "noteOn"
    },
    {
        "deltaTime": 225,
        "channel": 0,
        "type": "channel",
        "subtype": "noteOff",
        "noteNumber": 47,
        "velocity": 0
    },
    {
        "deltaTime": 0,
        "channel": 0,
        "type": "channel",
        "noteNumber": 51,
        "velocity": 72,
        "subtype": "noteOn"
    },
    {
        "deltaTime": 480,
        "channel": 0,
        "type": "channel",
        "subtype": "noteOff",
        "noteNumber": 83,
        "velocity": 0
    },
    {
        "deltaTime": 0,
        "channel": 0,
        "type": "channel",
        "subtype": "noteOff",
        "noteNumber": 87,
        "velocity": 0
    },
    {
        "deltaTime": 0,
        "channel": 0,
        "type": "channel",
        "subtype": "noteOff",
        "noteNumber": 90,
        "velocity": 0
    },
    {
        "deltaTime": 0,
        "channel": 0,
        "type": "channel",
        "subtype": "noteOff",
        "noteNumber": 51,
        "velocity": 0
    },
    {
        "deltaTime": 0,
        "channel": 0,
        "type": "channel",
        "noteNumber": 54,
        "velocity": 78,
        "subtype": "noteOn"
    },
    {
        "deltaTime": 480,
        "channel": 0,
        "type": "channel",
        "subtype": "noteOff",
        "noteNumber": 54,
        "velocity": 0
    },
    {
        "deltaTime": 0,
        "channel": 0,
        "type": "channel",
        "noteNumber": 51,
        "velocity": 71,
        "subtype": "noteOn"
    },
    {
        "deltaTime": 480,
        "channel": 0,
        "type": "channel",
        "subtype": "noteOff",
        "noteNumber": 51,
        "velocity": 0
    },
    {
        "deltaTime": 0,
        "channel": 0,
        "type": "channel",
        "noteNumber": 83,
        "velocity": 61,
        "subtype": "noteOn"
    },
    {
        "deltaTime": 0,
        "channel": 0,
        "type": "channel",
        "noteNumber": 57,
        "velocity": 80,
        "subtype": "noteOn"
    },
    {
        "deltaTime": 128,
        "channel": 0,
        "type": "channel",
        "noteNumber": 87,
        "velocity": 61,
        "subtype": "noteOn"
    },
    {
        "deltaTime": 127,
        "channel": 0,
        "type": "channel",
        "noteNumber": 90,
        "velocity": 61,
        "subtype": "noteOn"
    },
    {
        "deltaTime": 225,
        "channel": 0,
        "type": "channel",
        "subtype": "noteOff",
        "noteNumber": 57,
        "velocity": 0
    },
    {
        "deltaTime": 0,
        "channel": 0,
        "type": "channel",
        "noteNumber": 51,
        "velocity": 68,
        "subtype": "noteOn"
    },
    {
        "deltaTime": 480,
        "channel": 0,
        "type": "channel",
        "subtype": "noteOff",
        "noteNumber": 83,
        "velocity": 0
    },
    {
        "deltaTime": 0,
        "channel": 0,
        "type": "channel",
        "subtype": "noteOff",
        "noteNumber": 87,
        "velocity": 0
    },
    {
        "deltaTime": 0,
        "channel": 0,
        "type": "channel",
        "subtype": "noteOff",
        "noteNumber": 90,
        "velocity": 0
    },
    {
        "deltaTime": 0,
        "channel": 0,
        "type": "channel",
        "subtype": "noteOff",
        "noteNumber": 51,
        "velocity": 0
    },
    {
        "deltaTime": 0,
        "channel": 0,
        "type": "channel",
        "noteNumber": 54,
        "velocity": 74,
        "subtype": "noteOn"
    },
    {
        "deltaTime": 480,
        "channel": 0,
        "type": "channel",
        "subtype": "noteOff",
        "noteNumber": 54,
        "velocity": 0
    },
    {
        "deltaTime": 0,
        "channel": 0,
        "type": "channel",
        "noteNumber": 51,
        "velocity": 68,
        "subtype": "noteOn"
    },
    {
        "deltaTime": 480,
        "channel": 0,
        "type": "channel",
        "subtype": "noteOff",
        "noteNumber": 51,
        "velocity": 0
    },
    {
        "deltaTime": 0,
        "channel": 0,
        "type": "channel",
        "noteNumber": 80,
        "velocity": 60,
        "subtype": "noteOn"
    },
    {
        "deltaTime": 0,
        "channel": 0,
        "type": "channel",
        "noteNumber": 52,
        "velocity": 70,
        "subtype": "noteOn"
    },
    {
        "deltaTime": 128,
        "channel": 0,
        "type": "channel",
        "noteNumber": 83,
        "velocity": 60,
        "subtype": "noteOn"
    },
    {
        "deltaTime": 127,
        "channel": 0,
        "type": "channel",
        "noteNumber": 86,
        "velocity": 60,
        "subtype": "noteOn"
    },
    {
        "deltaTime": 225,
        "channel": 0,
        "type": "channel",
        "subtype": "noteOff",
        "noteNumber": 52,
        "velocity": 0
    },
    {
        "deltaTime": 0,
        "channel": 0,
        "type": "channel",
        "noteNumber": 47,
        "velocity": 65,
        "subtype": "noteOn"
    },
    {
        "deltaTime": 480,
        "channel": 0,
        "type": "channel",
        "subtype": "noteOff",
        "noteNumber": 80,
        "velocity": 0
    },
    {
        "deltaTime": 0,
        "channel": 0,
        "type": "channel",
        "subtype": "noteOff",
        "noteNumber": 83,
        "velocity": 0
    },
    {
        "deltaTime": 0,
        "channel": 0,
        "type": "channel",
        "subtype": "noteOff",
        "noteNumber": 86,
        "velocity": 0
    },
    {
        "deltaTime": 0,
        "channel": 0,
        "type": "channel",
        "subtype": "noteOff",
        "noteNumber": 47,
        "velocity": 0
    },
    {
        "deltaTime": 0,
        "channel": 0,
        "type": "channel",
        "noteNumber": 56,
        "velocity": 79,
        "subtype": "noteOn"
    },
    {
        "deltaTime": 480,
        "channel": 0,
        "type": "channel",
        "subtype": "noteOff",
        "noteNumber": 56,
        "velocity": 0
    },
    {
        "deltaTime": 0,
        "channel": 0,
        "type": "channel",
        "noteNumber": 52,
        "velocity": 71,
        "subtype": "noteOn"
    },
    {
        "deltaTime": 480,
        "channel": 0,
        "type": "channel",
        "subtype": "noteOff",
        "noteNumber": 52,
        "velocity": 0
    },
    {
        "deltaTime": 0,
        "channel": 0,
        "type": "channel",
        "noteNumber": 80,
        "velocity": 61,
        "subtype": "noteOn"
    },
    {
        "deltaTime": 0,
        "channel": 0,
        "type": "channel",
        "noteNumber": 59,
        "velocity": 81,
        "subtype": "noteOn"
    },
    {
        "deltaTime": 128,
        "channel": 0,
        "type": "channel",
        "noteNumber": 83,
        "velocity": 61,
        "subtype": "noteOn"
    },
    {
        "deltaTime": 127,
        "channel": 0,
        "type": "channel",
        "noteNumber": 86,
        "velocity": 61,
        "subtype": "noteOn"
    },
    {
        "deltaTime": 225,
        "channel": 0,
        "type": "channel",
        "subtype": "noteOff",
        "noteNumber": 59,
        "velocity": 0
    },
    {
        "deltaTime": 0,
        "channel": 0,
        "type": "channel",
        "noteNumber": 52,
        "velocity": 68,
        "subtype": "noteOn"
    },
    {
        "deltaTime": 480,
        "channel": 0,
        "type": "channel",
        "subtype": "noteOff",
        "noteNumber": 80,
        "velocity": 0
    },
    {
        "deltaTime": 0,
        "channel": 0,
        "type": "channel",
        "subtype": "noteOff",
        "noteNumber": 83,
        "velocity": 0
    },
    {
        "deltaTime": 0,
        "channel": 0,
        "type": "channel",
        "subtype": "noteOff",
        "noteNumber": 86,
        "velocity": 0
    },
    {
        "deltaTime": 0,
        "channel": 0,
        "type": "channel",
        "subtype": "noteOff",
        "noteNumber": 52,
        "velocity": 0
    },
    {
        "deltaTime": 0,
        "channel": 0,
        "type": "channel",
        "noteNumber": 56,
        "velocity": 75,
        "subtype": "noteOn"
    },
    {
        "deltaTime": 480,
        "channel": 0,
        "type": "channel",
        "subtype": "noteOff",
        "noteNumber": 56,
        "velocity": 0
    },
    {
        "deltaTime": 0,
        "channel": 0,
        "type": "channel",
        "noteNumber": 52,
        "velocity": 67,
        "subtype": "noteOn"
    },
    {
        "deltaTime": 480,
        "channel": 0,
        "type": "channel",
        "subtype": "noteOff",
        "noteNumber": 52,
        "velocity": 0
    },
    {
        "deltaTime": 0,
        "channel": 0,
        "type": "channel",
        "noteNumber": 81,
        "velocity": 62,
        "subtype": "noteOn"
    },
    {
        "deltaTime": 0,
        "channel": 0,
        "type": "channel",
        "noteNumber": 45,
        "velocity": 63,
        "subtype": "noteOn"
    },
    {
        "deltaTime": 128,
        "channel": 0,
        "type": "channel",
        "noteNumber": 85,
        "velocity": 62,
        "subtype": "noteOn"
    },
    {
        "deltaTime": 127,
        "channel": 0,
        "type": "channel",
        "noteNumber": 88,
        "velocity": 62,
        "subtype": "noteOn"
    },
    {
        "deltaTime": 128,
        "channel": 0,
        "type": "channel",
        "noteNumber": 93,
        "velocity": 62,
        "subtype": "noteOn"
    },
    {
        "deltaTime": 97,
        "channel": 0,
        "type": "channel",
        "subtype": "noteOff",
        "noteNumber": 45,
        "velocity": 0
    },
    {
        "deltaTime": 0,
        "channel": 0,
        "type": "channel",
        "noteNumber": 52,
        "velocity": 72,
        "subtype": "noteOn"
    },
    {
        "deltaTime": 480,
        "channel": 0,
        "type": "channel",
        "subtype": "noteOff",
        "noteNumber": 81,
        "velocity": 0
    },
    {
        "deltaTime": 0,
        "channel": 0,
        "type": "channel",
        "subtype": "noteOff",
        "noteNumber": 85,
        "velocity": 0
    },
    {
        "deltaTime": 0,
        "channel": 0,
        "type": "channel",
        "subtype": "noteOff",
        "noteNumber": 88,
        "velocity": 0
    },
    {
        "deltaTime": 0,
        "channel": 0,
        "type": "channel",
        "subtype": "noteOff",
        "noteNumber": 93,
        "velocity": 0
    },
    {
        "deltaTime": 0,
        "channel": 0,
        "type": "channel",
        "subtype": "noteOff",
        "noteNumber": 52,
        "velocity": 0
    },
    {
        "deltaTime": 0,
        "channel": 0,
        "type": "channel",
        "noteNumber": 57,
        "velocity": 80,
        "subtype": "noteOn"
    },
    {
        "deltaTime": 480,
        "channel": 0,
        "type": "channel",
        "subtype": "noteOff",
        "noteNumber": 57,
        "velocity": 0
    },
    {
        "deltaTime": 0,
        "channel": 0,
        "type": "channel",
        "noteNumber": 52,
        "velocity": 70,
        "subtype": "noteOn"
    },
    {
        "deltaTime": 480,
        "channel": 0,
        "type": "channel",
        "subtype": "noteOff",
        "noteNumber": 52,
        "velocity": 0
    },
    {
        "deltaTime": 0,
        "channel": 0,
        "type": "channel",
        "noteNumber": 54,
        "velocity": 74,
        "subtype": "noteOn"
    },
    {
        "deltaTime": 480,
        "channel": 0,
        "type": "channel",
        "subtype": "noteOff",
        "noteNumber": 54,
        "velocity": 0
    },
    {
        "deltaTime": 0,
        "channel": 0,
        "type": "channel",
        "noteNumber": 56,
        "velocity": 77,
        "subtype": "noteOn"
    },
    {
        "deltaTime": 480,
        "channel": 0,
        "type": "channel",
        "subtype": "noteOff",
        "noteNumber": 56,
        "velocity": 0
    },
    {
        "deltaTime": 0,
        "channel": 0,
        "type": "channel",
        "noteNumber": 57,
        "velocity": 77,
        "subtype": "noteOn"
    },
    {
        "deltaTime": 480,
        "channel": 0,
        "type": "channel",
        "subtype": "noteOff",
        "noteNumber": 57,
        "velocity": 0
    },
    {
        "deltaTime": 0,
        "channel": 0,
        "type": "channel",
        "noteNumber": 59,
        "velocity": 78,
        "subtype": "noteOn"
    },
    {
        "deltaTime": 480,
        "channel": 0,
        "type": "channel",
        "subtype": "noteOff",
        "noteNumber": 59,
        "velocity": 0
    },
    {
        "deltaTime": 0,
        "channel": 0,
        "type": "channel",
        "noteNumber": 66,
        "velocity": 71,
        "subtype": "noteOn"
    },
    {
        "deltaTime": 0,
        "channel": 0,
        "type": "channel",
        "noteNumber": 45,
        "velocity": 58,
        "subtype": "noteOn"
    },
    {
        "deltaTime": 128,
        "channel": 0,
        "type": "channel",
        "noteNumber": 49,
        "velocity": 58,
        "subtype": "noteOn"
    },
    {
        "deltaTime": 127,
        "channel": 0,
        "type": "channel",
        "noteNumber": 54,
        "velocity": 58,
        "subtype": "noteOn"
    },
    {
        "deltaTime": 225,
        "channel": 0,
        "type": "channel",
        "subtype": "noteOff",
        "noteNumber": 66,
        "velocity": 0
    },
    {
        "deltaTime": 0,
        "channel": 0,
        "type": "channel",
        "noteNumber": 69,
        "velocity": 72,
        "subtype": "noteOn"
    },
    {
        "deltaTime": 480,
        "channel": 0,
        "type": "channel",
        "subtype": "noteOff",
        "noteNumber": 69,
        "velocity": 0
    },
    {
        "deltaTime": 0,
        "channel": 0,
        "type": "channel",
        "noteNumber": 66,
        "velocity": 70,
        "subtype": "noteOn"
    },
    {
        "deltaTime": 480,
        "channel": 0,
        "type": "channel",
        "subtype": "noteOff",
        "noteNumber": 66,
        "velocity": 0
    },
    {
        "deltaTime": 0,
        "channel": 0,
        "type": "channel",
        "noteNumber": 69,
        "velocity": 74,
        "subtype": "noteOn"
    },
    {
        "deltaTime": 480,
        "channel": 0,
        "type": "channel",
        "subtype": "noteOff",
        "noteNumber": 69,
        "velocity": 0
    },
    {
        "deltaTime": 0,
        "channel": 0,
        "type": "channel",
        "subtype": "noteOff",
        "noteNumber": 45,
        "velocity": 0
    },
    {
        "deltaTime": 0,
        "channel": 0,
        "type": "channel",
        "subtype": "noteOff",
        "noteNumber": 49,
        "velocity": 0
    },
    {
        "deltaTime": 0,
        "channel": 0,
        "type": "channel",
        "subtype": "noteOff",
        "noteNumber": 54,
        "velocity": 0
    },
    {
        "deltaTime": 0,
        "channel": 0,
        "type": "channel",
        "noteNumber": 66,
        "velocity": 69,
        "subtype": "noteOn"
    },
    {
        "deltaTime": 0,
        "channel": 0,
        "type": "channel",
        "noteNumber": 45,
        "velocity": 60,
        "subtype": "noteOn"
    },
    {
        "deltaTime": 128,
        "channel": 0,
        "type": "channel",
        "noteNumber": 49,
        "velocity": 60,
        "subtype": "noteOn"
    },
    {
        "deltaTime": 127,
        "channel": 0,
        "type": "channel",
        "noteNumber": 54,
        "velocity": 60,
        "subtype": "noteOn"
    },
    {
        "deltaTime": 225,
        "channel": 0,
        "type": "channel",
        "subtype": "noteOff",
        "noteNumber": 66,
        "velocity": 0
    },
    {
        "deltaTime": 0,
        "channel": 0,
        "type": "channel",
        "noteNumber": 69,
        "velocity": 74,
        "subtype": "noteOn"
    },
    {
        "deltaTime": 480,
        "channel": 0,
        "type": "channel",
        "subtype": "noteOff",
        "noteNumber": 69,
        "velocity": 0
    },
    {
        "deltaTime": 0,
        "channel": 0,
        "type": "channel",
        "noteNumber": 66,
        "velocity": 68,
        "subtype": "noteOn"
    },
    {
        "deltaTime": 480,
        "channel": 0,
        "type": "channel",
        "subtype": "noteOff",
        "noteNumber": 66,
        "velocity": 0
    },
    {
        "deltaTime": 0,
        "channel": 0,
        "type": "channel",
        "noteNumber": 69,
        "velocity": 74,
        "subtype": "noteOn"
    },
    {
        "deltaTime": 480,
        "channel": 0,
        "type": "channel",
        "subtype": "noteOff",
        "noteNumber": 69,
        "velocity": 0
    },
    {
        "deltaTime": 0,
        "channel": 0,
        "type": "channel",
        "subtype": "noteOff",
        "noteNumber": 45,
        "velocity": 0
    },
    {
        "deltaTime": 0,
        "channel": 0,
        "type": "channel",
        "subtype": "noteOff",
        "noteNumber": 49,
        "velocity": 0
    },
    {
        "deltaTime": 0,
        "channel": 0,
        "type": "channel",
        "subtype": "noteOff",
        "noteNumber": 54,
        "velocity": 0
    },
    {
        "deltaTime": 0,
        "channel": 0,
        "type": "channel",
        "noteNumber": 63,
        "velocity": 63,
        "subtype": "noteOn"
    },
    {
        "deltaTime": 0,
        "channel": 0,
        "type": "channel",
        "noteNumber": 45,
        "velocity": 61,
        "subtype": "noteOn"
    },
    {
        "deltaTime": 128,
        "channel": 0,
        "type": "channel",
        "noteNumber": 51,
        "velocity": 61,
        "subtype": "noteOn"
    },
    {
        "deltaTime": 127,
        "channel": 0,
        "type": "channel",
        "noteNumber": 54,
        "velocity": 61,
        "subtype": "noteOn"
    },
    {
        "deltaTime": 225,
        "channel": 0,
        "type": "channel",
        "subtype": "noteOff",
        "noteNumber": 63,
        "velocity": 0
    },
    {
        "deltaTime": 0,
        "channel": 0,
        "type": "channel",
        "noteNumber": 69,
        "velocity": 76,
        "subtype": "noteOn"
    },
    {
        "deltaTime": 480,
        "channel": 0,
        "type": "channel",
        "subtype": "noteOff",
        "noteNumber": 69,
        "velocity": 0
    },
    {
        "deltaTime": 0,
        "channel": 0,
        "type": "channel",
        "noteNumber": 63,
        "velocity": 64,
        "subtype": "noteOn"
    },
    {
        "deltaTime": 480,
        "channel": 0,
        "type": "channel",
        "subtype": "noteOff",
        "noteNumber": 63,
        "velocity": 0
    },
    {
        "deltaTime": 0,
        "channel": 0,
        "type": "channel",
        "noteNumber": 69,
        "velocity": 77,
        "subtype": "noteOn"
    },
    {
        "deltaTime": 480,
        "channel": 0,
        "type": "channel",
        "subtype": "noteOff",
        "noteNumber": 69,
        "velocity": 0
    },
    {
        "deltaTime": 0,
        "channel": 0,
        "type": "channel",
        "subtype": "noteOff",
        "noteNumber": 45,
        "velocity": 0
    },
    {
        "deltaTime": 0,
        "channel": 0,
        "type": "channel",
        "subtype": "noteOff",
        "noteNumber": 51,
        "velocity": 0
    },
    {
        "deltaTime": 0,
        "channel": 0,
        "type": "channel",
        "subtype": "noteOff",
        "noteNumber": 54,
        "velocity": 0
    },
    {
        "deltaTime": 0,
        "channel": 0,
        "type": "channel",
        "noteNumber": 63,
        "velocity": 64,
        "subtype": "noteOn"
    },
    {
        "deltaTime": 0,
        "channel": 0,
        "type": "channel",
        "noteNumber": 45,
        "velocity": 61,
        "subtype": "noteOn"
    },
    {
        "deltaTime": 128,
        "channel": 0,
        "type": "channel",
        "noteNumber": 51,
        "velocity": 61,
        "subtype": "noteOn"
    },
    {
        "deltaTime": 127,
        "channel": 0,
        "type": "channel",
        "noteNumber": 54,
        "velocity": 61,
        "subtype": "noteOn"
    },
    {
        "deltaTime": 225,
        "channel": 0,
        "type": "channel",
        "subtype": "noteOff",
        "noteNumber": 63,
        "velocity": 0
    },
    {
        "deltaTime": 0,
        "channel": 0,
        "type": "channel",
        "noteNumber": 69,
        "velocity": 77,
        "subtype": "noteOn"
    },
    {
        "deltaTime": 480,
        "channel": 0,
        "type": "channel",
        "subtype": "noteOff",
        "noteNumber": 69,
        "velocity": 0
    },
    {
        "deltaTime": 0,
        "channel": 0,
        "type": "channel",
        "noteNumber": 63,
        "velocity": 65,
        "subtype": "noteOn"
    },
    {
        "deltaTime": 480,
        "channel": 0,
        "type": "channel",
        "subtype": "noteOff",
        "noteNumber": 63,
        "velocity": 0
    },
    {
        "deltaTime": 0,
        "channel": 0,
        "type": "channel",
        "noteNumber": 69,
        "velocity": 77,
        "subtype": "noteOn"
    },
    {
        "deltaTime": 480,
        "channel": 0,
        "type": "channel",
        "subtype": "noteOff",
        "noteNumber": 69,
        "velocity": 0
    },
    {
        "deltaTime": 0,
        "channel": 0,
        "type": "channel",
        "subtype": "noteOff",
        "noteNumber": 45,
        "velocity": 0
    },
    {
        "deltaTime": 0,
        "channel": 0,
        "type": "channel",
        "subtype": "noteOff",
        "noteNumber": 51,
        "velocity": 0
    },
    {
        "deltaTime": 0,
        "channel": 0,
        "type": "channel",
        "subtype": "noteOff",
        "noteNumber": 54,
        "velocity": 0
    },
    {
        "deltaTime": 0,
        "channel": 0,
        "type": "channel",
        "noteNumber": 62,
        "velocity": 63,
        "subtype": "noteOn"
    },
    {
        "deltaTime": 0,
        "channel": 0,
        "type": "channel",
        "noteNumber": 45,
        "velocity": 61,
        "subtype": "noteOn"
    },
    {
        "deltaTime": 128,
        "channel": 0,
        "type": "channel",
        "noteNumber": 50,
        "velocity": 61,
        "subtype": "noteOn"
    },
    {
        "deltaTime": 127,
        "channel": 0,
        "type": "channel",
        "noteNumber": 54,
        "velocity": 61,
        "subtype": "noteOn"
    },
    {
        "deltaTime": 225,
        "channel": 0,
        "type": "channel",
        "subtype": "noteOff",
        "noteNumber": 62,
        "velocity": 0
    },
    {
        "deltaTime": 0,
        "channel": 0,
        "type": "channel",
        "noteNumber": 69,
        "velocity": 78,
        "subtype": "noteOn"
    },
    {
        "deltaTime": 480,
        "channel": 0,
        "type": "channel",
        "subtype": "noteOff",
        "noteNumber": 69,
        "velocity": 0
    },
    {
        "deltaTime": 0,
        "channel": 0,
        "type": "channel",
        "noteNumber": 62,
        "velocity": 64,
        "subtype": "noteOn"
    },
    {
        "deltaTime": 480,
        "channel": 0,
        "type": "channel",
        "subtype": "noteOff",
        "noteNumber": 62,
        "velocity": 0
    },
    {
        "deltaTime": 0,
        "channel": 0,
        "type": "channel",
        "noteNumber": 69,
        "velocity": 78,
        "subtype": "noteOn"
    },
    {
        "deltaTime": 480,
        "channel": 0,
        "type": "channel",
        "subtype": "noteOff",
        "noteNumber": 69,
        "velocity": 0
    },
    {
        "deltaTime": 0,
        "channel": 0,
        "type": "channel",
        "subtype": "noteOff",
        "noteNumber": 45,
        "velocity": 0
    },
    {
        "deltaTime": 0,
        "channel": 0,
        "type": "channel",
        "subtype": "noteOff",
        "noteNumber": 50,
        "velocity": 0
    },
    {
        "deltaTime": 0,
        "channel": 0,
        "type": "channel",
        "subtype": "noteOff",
        "noteNumber": 54,
        "velocity": 0
    },
    {
        "deltaTime": 0,
        "channel": 0,
        "type": "channel",
        "noteNumber": 62,
        "velocity": 64,
        "subtype": "noteOn"
    },
    {
        "deltaTime": 0,
        "channel": 0,
        "type": "channel",
        "noteNumber": 45,
        "velocity": 61,
        "subtype": "noteOn"
    },
    {
        "deltaTime": 128,
        "channel": 0,
        "type": "channel",
        "noteNumber": 50,
        "velocity": 61,
        "subtype": "noteOn"
    },
    {
        "deltaTime": 127,
        "channel": 0,
        "type": "channel",
        "noteNumber": 54,
        "velocity": 61,
        "subtype": "noteOn"
    },
    {
        "deltaTime": 225,
        "channel": 0,
        "type": "channel",
        "subtype": "noteOff",
        "noteNumber": 62,
        "velocity": 0
    },
    {
        "deltaTime": 0,
        "channel": 0,
        "type": "channel",
        "noteNumber": 69,
        "velocity": 78,
        "subtype": "noteOn"
    },
    {
        "deltaTime": 480,
        "channel": 0,
        "type": "channel",
        "subtype": "noteOff",
        "noteNumber": 69,
        "velocity": 0
    },
    {
        "deltaTime": 0,
        "channel": 0,
        "type": "channel",
        "noteNumber": 62,
        "velocity": 64,
        "subtype": "noteOn"
    },
    {
        "deltaTime": 480,
        "channel": 0,
        "type": "channel",
        "subtype": "noteOff",
        "noteNumber": 62,
        "velocity": 0
    },
    {
        "deltaTime": 0,
        "channel": 0,
        "type": "channel",
        "noteNumber": 69,
        "velocity": 78,
        "subtype": "noteOn"
    },
    {
        "deltaTime": 480,
        "channel": 0,
        "type": "channel",
        "subtype": "noteOff",
        "noteNumber": 69,
        "velocity": 0
    },
    {
        "deltaTime": 0,
        "channel": 0,
        "type": "channel",
        "subtype": "noteOff",
        "noteNumber": 45,
        "velocity": 0
    },
    {
        "deltaTime": 0,
        "channel": 0,
        "type": "channel",
        "subtype": "noteOff",
        "noteNumber": 50,
        "velocity": 0
    },
    {
        "deltaTime": 0,
        "channel": 0,
        "type": "channel",
        "subtype": "noteOff",
        "noteNumber": 54,
        "velocity": 0
    },
    {
        "deltaTime": 0,
        "channel": 0,
        "type": "channel",
        "noteNumber": 61,
        "velocity": 63,
        "subtype": "noteOn"
    },
    {
        "deltaTime": 0,
        "channel": 0,
        "type": "channel",
        "noteNumber": 45,
        "velocity": 61,
        "subtype": "noteOn"
    },
    {
        "deltaTime": 128,
        "channel": 0,
        "type": "channel",
        "noteNumber": 49,
        "velocity": 61,
        "subtype": "noteOn"
    },
    {
        "deltaTime": 127,
        "channel": 0,
        "type": "channel",
        "noteNumber": 52,
        "velocity": 61,
        "subtype": "noteOn"
    },
    {
        "deltaTime": 225,
        "channel": 0,
        "type": "channel",
        "subtype": "noteOff",
        "noteNumber": 61,
        "velocity": 0
    },
    {
        "deltaTime": 0,
        "channel": 0,
        "type": "channel",
        "noteNumber": 69,
        "velocity": 79,
        "subtype": "noteOn"
    },
    {
        "deltaTime": 480,
        "channel": 0,
        "type": "channel",
        "subtype": "noteOff",
        "noteNumber": 69,
        "velocity": 0
    },
    {
        "deltaTime": 0,
        "channel": 0,
        "type": "channel",
        "noteNumber": 61,
        "velocity": 63,
        "subtype": "noteOn"
    },
    {
        "deltaTime": 480,
        "channel": 0,
        "type": "channel",
        "subtype": "noteOff",
        "noteNumber": 61,
        "velocity": 0
    },
    {
        "deltaTime": 0,
        "channel": 0,
        "type": "channel",
        "noteNumber": 69,
        "velocity": 79,
        "subtype": "noteOn"
    },
    {
        "deltaTime": 480,
        "channel": 0,
        "type": "channel",
        "subtype": "noteOff",
        "noteNumber": 69,
        "velocity": 0
    },
    {
        "deltaTime": 0,
        "channel": 0,
        "type": "channel",
        "subtype": "noteOff",
        "noteNumber": 45,
        "velocity": 0
    },
    {
        "deltaTime": 0,
        "channel": 0,
        "type": "channel",
        "subtype": "noteOff",
        "noteNumber": 49,
        "velocity": 0
    },
    {
        "deltaTime": 0,
        "channel": 0,
        "type": "channel",
        "subtype": "noteOff",
        "noteNumber": 52,
        "velocity": 0
    },
    {
        "deltaTime": 0,
        "channel": 0,
        "type": "channel",
        "noteNumber": 59,
        "velocity": 61,
        "subtype": "noteOn"
    },
    {
        "deltaTime": 0,
        "channel": 0,
        "type": "channel",
        "noteNumber": 45,
        "velocity": 61,
        "subtype": "noteOn"
    },
    {
        "deltaTime": 128,
        "channel": 0,
        "type": "channel",
        "noteNumber": 49,
        "velocity": 61,
        "subtype": "noteOn"
    },
    {
        "deltaTime": 127,
        "channel": 0,
        "type": "channel",
        "noteNumber": 52,
        "velocity": 61,
        "subtype": "noteOn"
    },
    {
        "deltaTime": 225,
        "channel": 0,
        "type": "channel",
        "subtype": "noteOff",
        "noteNumber": 59,
        "velocity": 0
    },
    {
        "deltaTime": 0,
        "channel": 0,
        "type": "channel",
        "noteNumber": 68,
        "velocity": 78,
        "subtype": "noteOn"
    },
    {
        "deltaTime": 480,
        "channel": 0,
        "type": "channel",
        "subtype": "noteOff",
        "noteNumber": 68,
        "velocity": 0
    },
    {
        "deltaTime": 0,
        "channel": 0,
        "type": "channel",
        "noteNumber": 59,
        "velocity": 62,
        "subtype": "noteOn"
    },
    {
        "deltaTime": 480,
        "channel": 0,
        "type": "channel",
        "subtype": "noteOff",
        "noteNumber": 59,
        "velocity": 0
    },
    {
        "deltaTime": 0,
        "channel": 0,
        "type": "channel",
        "noteNumber": 68,
        "velocity": 79,
        "subtype": "noteOn"
    },
    {
        "deltaTime": 480,
        "channel": 0,
        "type": "channel",
        "subtype": "noteOff",
        "noteNumber": 68,
        "velocity": 0
    },
    {
        "deltaTime": 0,
        "channel": 0,
        "type": "channel",
        "subtype": "noteOff",
        "noteNumber": 45,
        "velocity": 0
    },
    {
        "deltaTime": 0,
        "channel": 0,
        "type": "channel",
        "subtype": "noteOff",
        "noteNumber": 49,
        "velocity": 0
    },
    {
        "deltaTime": 0,
        "channel": 0,
        "type": "channel",
        "subtype": "noteOff",
        "noteNumber": 52,
        "velocity": 0
    },
    {
        "deltaTime": 0,
        "channel": 0,
        "type": "channel",
        "noteNumber": 66,
        "velocity": 74,
        "subtype": "noteOn"
    },
    {
        "deltaTime": 0,
        "channel": 0,
        "type": "channel",
        "noteNumber": 45,
        "velocity": 61,
        "subtype": "noteOn"
    },
    {
        "deltaTime": 128,
        "channel": 0,
        "type": "channel",
        "noteNumber": 49,
        "velocity": 61,
        "subtype": "noteOn"
    },
    {
        "deltaTime": 127,
        "channel": 0,
        "type": "channel",
        "noteNumber": 54,
        "velocity": 61,
        "subtype": "noteOn"
    },
    {
        "deltaTime": 225,
        "channel": 0,
        "type": "channel",
        "subtype": "noteOff",
        "noteNumber": 66,
        "velocity": 0
    },
    {
        "deltaTime": 0,
        "channel": 0,
        "type": "channel",
        "noteNumber": 69,
        "velocity": 78,
        "subtype": "noteOn"
    },
    {
        "deltaTime": 480,
        "channel": 0,
        "type": "channel",
        "subtype": "noteOff",
        "noteNumber": 69,
        "velocity": 0
    },
    {
        "deltaTime": 0,
        "channel": 0,
        "type": "channel",
        "noteNumber": 66,
        "velocity": 71,
        "subtype": "noteOn"
    },
    {
        "deltaTime": 480,
        "channel": 0,
        "type": "channel",
        "subtype": "noteOff",
        "noteNumber": 66,
        "velocity": 0
    },
    {
        "deltaTime": 0,
        "channel": 0,
        "type": "channel",
        "noteNumber": 69,
        "velocity": 76,
        "subtype": "noteOn"
    },
    {
        "deltaTime": 480,
        "channel": 0,
        "type": "channel",
        "subtype": "noteOff",
        "noteNumber": 69,
        "velocity": 0
    },
    {
        "deltaTime": 0,
        "channel": 0,
        "type": "channel",
        "subtype": "noteOff",
        "noteNumber": 45,
        "velocity": 0
    },
    {
        "deltaTime": 0,
        "channel": 0,
        "type": "channel",
        "subtype": "noteOff",
        "noteNumber": 49,
        "velocity": 0
    },
    {
        "deltaTime": 0,
        "channel": 0,
        "type": "channel",
        "subtype": "noteOff",
        "noteNumber": 54,
        "velocity": 0
    },
    {
        "deltaTime": 0,
        "channel": 0,
        "type": "channel",
        "noteNumber": 66,
        "velocity": 69,
        "subtype": "noteOn"
    },
    {
        "deltaTime": 0,
        "channel": 0,
        "type": "channel",
        "noteNumber": 45,
        "velocity": 61,
        "subtype": "noteOn"
    },
    {
        "deltaTime": 128,
        "channel": 0,
        "type": "channel",
        "noteNumber": 49,
        "velocity": 61,
        "subtype": "noteOn"
    },
    {
        "deltaTime": 127,
        "channel": 0,
        "type": "channel",
        "noteNumber": 54,
        "velocity": 61,
        "subtype": "noteOn"
    },
    {
        "deltaTime": 225,
        "channel": 0,
        "type": "channel",
        "subtype": "noteOff",
        "noteNumber": 66,
        "velocity": 0
    },
    {
        "deltaTime": 0,
        "channel": 0,
        "type": "channel",
        "noteNumber": 69,
        "velocity": 75,
        "subtype": "noteOn"
    },
    {
        "deltaTime": 480,
        "channel": 0,
        "type": "channel",
        "subtype": "noteOff",
        "noteNumber": 69,
        "velocity": 0
    },
    {
        "deltaTime": 0,
        "channel": 0,
        "type": "channel",
        "noteNumber": 66,
        "velocity": 68,
        "subtype": "noteOn"
    },
    {
        "deltaTime": 480,
        "channel": 0,
        "type": "channel",
        "subtype": "noteOff",
        "noteNumber": 66,
        "velocity": 0
    },
    {
        "deltaTime": 0,
        "channel": 0,
        "type": "channel",
        "noteNumber": 69,
        "velocity": 74,
        "subtype": "noteOn"
    },
    {
        "deltaTime": 480,
        "channel": 0,
        "type": "channel",
        "subtype": "noteOff",
        "noteNumber": 69,
        "velocity": 0
    },
    {
        "deltaTime": 0,
        "channel": 0,
        "type": "channel",
        "subtype": "noteOff",
        "noteNumber": 45,
        "velocity": 0
    },
    {
        "deltaTime": 0,
        "channel": 0,
        "type": "channel",
        "subtype": "noteOff",
        "noteNumber": 49,
        "velocity": 0
    },
    {
        "deltaTime": 0,
        "channel": 0,
        "type": "channel",
        "subtype": "noteOff",
        "noteNumber": 54,
        "velocity": 0
    },
    {
        "deltaTime": 0,
        "channel": 0,
        "type": "channel",
        "noteNumber": 63,
        "velocity": 63,
        "subtype": "noteOn"
    },
    {
        "deltaTime": 0,
        "channel": 0,
        "type": "channel",
        "noteNumber": 45,
        "velocity": 61,
        "subtype": "noteOn"
    },
    {
        "deltaTime": 128,
        "channel": 0,
        "type": "channel",
        "noteNumber": 51,
        "velocity": 61,
        "subtype": "noteOn"
    },
    {
        "deltaTime": 127,
        "channel": 0,
        "type": "channel",
        "noteNumber": 54,
        "velocity": 61,
        "subtype": "noteOn"
    },
    {
        "deltaTime": 225,
        "channel": 0,
        "type": "channel",
        "subtype": "noteOff",
        "noteNumber": 63,
        "velocity": 0
    },
    {
        "deltaTime": 0,
        "channel": 0,
        "type": "channel",
        "noteNumber": 69,
        "velocity": 76,
        "subtype": "noteOn"
    },
    {
        "deltaTime": 480,
        "channel": 0,
        "type": "channel",
        "subtype": "noteOff",
        "noteNumber": 69,
        "velocity": 0
    },
    {
        "deltaTime": 0,
        "channel": 0,
        "type": "channel",
        "noteNumber": 63,
        "velocity": 64,
        "subtype": "noteOn"
    },
    {
        "deltaTime": 480,
        "channel": 0,
        "type": "channel",
        "subtype": "noteOff",
        "noteNumber": 63,
        "velocity": 0
    },
    {
        "deltaTime": 0,
        "channel": 0,
        "type": "channel",
        "noteNumber": 69,
        "velocity": 77,
        "subtype": "noteOn"
    },
    {
        "deltaTime": 480,
        "channel": 0,
        "type": "channel",
        "subtype": "noteOff",
        "noteNumber": 69,
        "velocity": 0
    },
    {
        "deltaTime": 0,
        "channel": 0,
        "type": "channel",
        "subtype": "noteOff",
        "noteNumber": 45,
        "velocity": 0
    },
    {
        "deltaTime": 0,
        "channel": 0,
        "type": "channel",
        "subtype": "noteOff",
        "noteNumber": 51,
        "velocity": 0
    },
    {
        "deltaTime": 0,
        "channel": 0,
        "type": "channel",
        "subtype": "noteOff",
        "noteNumber": 54,
        "velocity": 0
    },
    {
        "deltaTime": 0,
        "channel": 0,
        "type": "channel",
        "noteNumber": 63,
        "velocity": 64,
        "subtype": "noteOn"
    },
    {
        "deltaTime": 0,
        "channel": 0,
        "type": "channel",
        "noteNumber": 45,
        "velocity": 61,
        "subtype": "noteOn"
    },
    {
        "deltaTime": 128,
        "channel": 0,
        "type": "channel",
        "noteNumber": 51,
        "velocity": 61,
        "subtype": "noteOn"
    },
    {
        "deltaTime": 127,
        "channel": 0,
        "type": "channel",
        "noteNumber": 54,
        "velocity": 61,
        "subtype": "noteOn"
    },
    {
        "deltaTime": 225,
        "channel": 0,
        "type": "channel",
        "subtype": "noteOff",
        "noteNumber": 63,
        "velocity": 0
    },
    {
        "deltaTime": 0,
        "channel": 0,
        "type": "channel",
        "noteNumber": 69,
        "velocity": 77,
        "subtype": "noteOn"
    },
    {
        "deltaTime": 480,
        "channel": 0,
        "type": "channel",
        "subtype": "noteOff",
        "noteNumber": 69,
        "velocity": 0
    },
    {
        "deltaTime": 0,
        "channel": 0,
        "type": "channel",
        "noteNumber": 63,
        "velocity": 65,
        "subtype": "noteOn"
    },
    {
        "deltaTime": 480,
        "channel": 0,
        "type": "channel",
        "subtype": "noteOff",
        "noteNumber": 63,
        "velocity": 0
    },
    {
        "deltaTime": 0,
        "channel": 0,
        "type": "channel",
        "noteNumber": 69,
        "velocity": 77,
        "subtype": "noteOn"
    },
    {
        "deltaTime": 480,
        "channel": 0,
        "type": "channel",
        "subtype": "noteOff",
        "noteNumber": 69,
        "velocity": 0
    },
    {
        "deltaTime": 0,
        "channel": 0,
        "type": "channel",
        "subtype": "noteOff",
        "noteNumber": 45,
        "velocity": 0
    },
    {
        "deltaTime": 0,
        "channel": 0,
        "type": "channel",
        "subtype": "noteOff",
        "noteNumber": 51,
        "velocity": 0
    },
    {
        "deltaTime": 0,
        "channel": 0,
        "type": "channel",
        "subtype": "noteOff",
        "noteNumber": 54,
        "velocity": 0
    },
    {
        "deltaTime": 0,
        "channel": 0,
        "type": "channel",
        "noteNumber": 62,
        "velocity": 63,
        "subtype": "noteOn"
    },
    {
        "deltaTime": 0,
        "channel": 0,
        "type": "channel",
        "noteNumber": 45,
        "velocity": 61,
        "subtype": "noteOn"
    },
    {
        "deltaTime": 128,
        "channel": 0,
        "type": "channel",
        "noteNumber": 50,
        "velocity": 61,
        "subtype": "noteOn"
    },
    {
        "deltaTime": 127,
        "channel": 0,
        "type": "channel",
        "noteNumber": 54,
        "velocity": 61,
        "subtype": "noteOn"
    },
    {
        "deltaTime": 225,
        "channel": 0,
        "type": "channel",
        "subtype": "noteOff",
        "noteNumber": 62,
        "velocity": 0
    },
    {
        "deltaTime": 0,
        "channel": 0,
        "type": "channel",
        "noteNumber": 69,
        "velocity": 78,
        "subtype": "noteOn"
    },
    {
        "deltaTime": 480,
        "channel": 0,
        "type": "channel",
        "subtype": "noteOff",
        "noteNumber": 69,
        "velocity": 0
    },
    {
        "deltaTime": 0,
        "channel": 0,
        "type": "channel",
        "noteNumber": 62,
        "velocity": 64,
        "subtype": "noteOn"
    },
    {
        "deltaTime": 480,
        "channel": 0,
        "type": "channel",
        "subtype": "noteOff",
        "noteNumber": 62,
        "velocity": 0
    },
    {
        "deltaTime": 0,
        "channel": 0,
        "type": "channel",
        "noteNumber": 69,
        "velocity": 78,
        "subtype": "noteOn"
    },
    {
        "deltaTime": 480,
        "channel": 0,
        "type": "channel",
        "subtype": "noteOff",
        "noteNumber": 69,
        "velocity": 0
    },
    {
        "deltaTime": 0,
        "channel": 0,
        "type": "channel",
        "subtype": "noteOff",
        "noteNumber": 45,
        "velocity": 0
    },
    {
        "deltaTime": 0,
        "channel": 0,
        "type": "channel",
        "subtype": "noteOff",
        "noteNumber": 50,
        "velocity": 0
    },
    {
        "deltaTime": 0,
        "channel": 0,
        "type": "channel",
        "subtype": "noteOff",
        "noteNumber": 54,
        "velocity": 0
    },
    {
        "deltaTime": 0,
        "channel": 0,
        "type": "channel",
        "noteNumber": 62,
        "velocity": 64,
        "subtype": "noteOn"
    },
    {
        "deltaTime": 0,
        "channel": 0,
        "type": "channel",
        "noteNumber": 45,
        "velocity": 61,
        "subtype": "noteOn"
    },
    {
        "deltaTime": 128,
        "channel": 0,
        "type": "channel",
        "noteNumber": 50,
        "velocity": 61,
        "subtype": "noteOn"
    },
    {
        "deltaTime": 127,
        "channel": 0,
        "type": "channel",
        "noteNumber": 54,
        "velocity": 61,
        "subtype": "noteOn"
    },
    {
        "deltaTime": 225,
        "channel": 0,
        "type": "channel",
        "subtype": "noteOff",
        "noteNumber": 62,
        "velocity": 0
    },
    {
        "deltaTime": 0,
        "channel": 0,
        "type": "channel",
        "noteNumber": 69,
        "velocity": 78,
        "subtype": "noteOn"
    },
    {
        "deltaTime": 480,
        "channel": 0,
        "type": "channel",
        "subtype": "noteOff",
        "noteNumber": 69,
        "velocity": 0
    },
    {
        "deltaTime": 0,
        "channel": 0,
        "type": "channel",
        "noteNumber": 62,
        "velocity": 64,
        "subtype": "noteOn"
    },
    {
        "deltaTime": 480,
        "channel": 0,
        "type": "channel",
        "subtype": "noteOff",
        "noteNumber": 62,
        "velocity": 0
    },
    {
        "deltaTime": 0,
        "channel": 0,
        "type": "channel",
        "noteNumber": 69,
        "velocity": 78,
        "subtype": "noteOn"
    },
    {
        "deltaTime": 480,
        "channel": 0,
        "type": "channel",
        "subtype": "noteOff",
        "noteNumber": 69,
        "velocity": 0
    },
    {
        "deltaTime": 0,
        "channel": 0,
        "type": "channel",
        "subtype": "noteOff",
        "noteNumber": 45,
        "velocity": 0
    },
    {
        "deltaTime": 0,
        "channel": 0,
        "type": "channel",
        "subtype": "noteOff",
        "noteNumber": 50,
        "velocity": 0
    },
    {
        "deltaTime": 0,
        "channel": 0,
        "type": "channel",
        "subtype": "noteOff",
        "noteNumber": 54,
        "velocity": 0
    },
    {
        "deltaTime": 0,
        "channel": 0,
        "type": "channel",
        "noteNumber": 61,
        "velocity": 63,
        "subtype": "noteOn"
    },
    {
        "deltaTime": 0,
        "channel": 0,
        "type": "channel",
        "noteNumber": 45,
        "velocity": 61,
        "subtype": "noteOn"
    },
    {
        "deltaTime": 128,
        "channel": 0,
        "type": "channel",
        "noteNumber": 49,
        "velocity": 61,
        "subtype": "noteOn"
    },
    {
        "deltaTime": 127,
        "channel": 0,
        "type": "channel",
        "noteNumber": 52,
        "velocity": 61,
        "subtype": "noteOn"
    },
    {
        "deltaTime": 225,
        "channel": 0,
        "type": "channel",
        "subtype": "noteOff",
        "noteNumber": 61,
        "velocity": 0
    },
    {
        "deltaTime": 0,
        "channel": 0,
        "type": "channel",
        "noteNumber": 69,
        "velocity": 79,
        "subtype": "noteOn"
    },
    {
        "deltaTime": 480,
        "channel": 0,
        "type": "channel",
        "subtype": "noteOff",
        "noteNumber": 69,
        "velocity": 0
    },
    {
        "deltaTime": 0,
        "channel": 0,
        "type": "channel",
        "noteNumber": 61,
        "velocity": 63,
        "subtype": "noteOn"
    },
    {
        "deltaTime": 480,
        "channel": 0,
        "type": "channel",
        "subtype": "noteOff",
        "noteNumber": 61,
        "velocity": 0
    },
    {
        "deltaTime": 0,
        "channel": 0,
        "type": "channel",
        "noteNumber": 69,
        "velocity": 79,
        "subtype": "noteOn"
    },
    {
        "deltaTime": 480,
        "channel": 0,
        "type": "channel",
        "subtype": "noteOff",
        "noteNumber": 69,
        "velocity": 0
    },
    {
        "deltaTime": 0,
        "channel": 0,
        "type": "channel",
        "subtype": "noteOff",
        "noteNumber": 45,
        "velocity": 0
    },
    {
        "deltaTime": 0,
        "channel": 0,
        "type": "channel",
        "subtype": "noteOff",
        "noteNumber": 49,
        "velocity": 0
    },
    {
        "deltaTime": 0,
        "channel": 0,
        "type": "channel",
        "subtype": "noteOff",
        "noteNumber": 52,
        "velocity": 0
    },
    {
        "deltaTime": 0,
        "channel": 0,
        "type": "channel",
        "noteNumber": 61,
        "velocity": 63,
        "subtype": "noteOn"
    },
    {
        "deltaTime": 480,
        "channel": 0,
        "type": "channel",
        "subtype": "noteOff",
        "noteNumber": 61,
        "velocity": 0
    },
    {
        "deltaTime": 0,
        "channel": 0,
        "type": "channel",
        "noteNumber": 69,
        "velocity": 79,
        "subtype": "noteOn"
    },
    {
        "deltaTime": 480,
        "channel": 0,
        "type": "channel",
        "subtype": "noteOff",
        "noteNumber": 69,
        "velocity": 0
    },
    {
        "deltaTime": 0,
        "channel": 0,
        "type": "channel",
        "noteNumber": 61,
        "velocity": 63,
        "subtype": "noteOn"
    },
    {
        "deltaTime": 480,
        "channel": 0,
        "type": "channel",
        "subtype": "noteOff",
        "noteNumber": 61,
        "velocity": 0
    },
    {
        "deltaTime": 0,
        "channel": 0,
        "type": "channel",
        "noteNumber": 69,
        "velocity": 79,
        "subtype": "noteOn"
    },
    {
        "deltaTime": 480,
        "channel": 0,
        "type": "channel",
        "subtype": "noteOff",
        "noteNumber": 69,
        "velocity": 0
    },
    {
        "deltaTime": 0,
        "channel": 0,
        "type": "channel",
        "noteNumber": 57,
        "velocity": 69,
        "subtype": "noteOn"
    },
    {
        "deltaTime": 0,
        "channel": 0,
        "type": "channel",
        "noteNumber": 40,
        "velocity": 61,
        "subtype": "noteOn"
    },
    {
        "deltaTime": 0,
        "channel": 0,
        "type": "channel",
        "noteNumber": 52,
        "velocity": 61,
        "subtype": "noteOn"
    },
    {
        "deltaTime": 128,
        "channel": 0,
        "type": "channel",
        "noteNumber": 61,
        "velocity": 69,
        "subtype": "noteOn"
    },
    {
        "deltaTime": 127,
        "channel": 0,
        "type": "channel",
        "noteNumber": 64,
        "velocity": 69,
        "subtype": "noteOn"
    },
    {
        "deltaTime": 705,
        "channel": 0,
        "type": "channel",
        "subtype": "noteOff",
        "noteNumber": 57,
        "velocity": 0
    },
    {
        "deltaTime": 0,
        "channel": 0,
        "type": "channel",
        "subtype": "noteOff",
        "noteNumber": 61,
        "velocity": 0
    },
    {
        "deltaTime": 0,
        "channel": 0,
        "type": "channel",
        "subtype": "noteOff",
        "noteNumber": 64,
        "velocity": 0
    },
    {
        "deltaTime": 0,
        "channel": 0,
        "type": "channel",
        "noteNumber": 57,
        "velocity": 62,
        "subtype": "noteOn"
    },
    {
        "deltaTime": 480,
        "channel": 0,
        "type": "channel",
        "subtype": "noteOff",
        "noteNumber": 57,
        "velocity": 0
    },
    {
        "deltaTime": 0,
        "channel": 0,
        "type": "channel",
        "noteNumber": 52,
        "velocity": 62,
        "subtype": "noteOn"
    },
    {
        "deltaTime": 480,
        "channel": 0,
        "type": "channel",
        "subtype": "noteOff",
        "noteNumber": 52,
        "velocity": 0
    },
    {
        "deltaTime": 0,
        "channel": 0,
        "type": "channel",
        "noteNumber": 61,
        "velocity": 75,
        "subtype": "noteOn"
    },
    {
        "deltaTime": 480,
        "channel": 0,
        "type": "channel",
        "subtype": "noteOff",
        "noteNumber": 61,
        "velocity": 0
    },
    {
        "deltaTime": 0,
        "channel": 0,
        "type": "channel",
        "noteNumber": 52,
        "velocity": 63,
        "subtype": "noteOn"
    },
    {
        "deltaTime": 480,
        "channel": 0,
        "type": "channel",
        "subtype": "noteOff",
        "noteNumber": 52,
        "velocity": 0
    },
    {
        "deltaTime": 0,
        "channel": 0,
        "type": "channel",
        "noteNumber": 57,
        "velocity": 72,
        "subtype": "noteOn"
    },
    {
        "deltaTime": 480,
        "channel": 0,
        "type": "channel",
        "subtype": "noteOff",
        "noteNumber": 57,
        "velocity": 0
    },
    {
        "deltaTime": 0,
        "channel": 0,
        "type": "channel",
        "noteNumber": 52,
        "velocity": 65,
        "subtype": "noteOn"
    },
    {
        "deltaTime": 480,
        "channel": 0,
        "type": "channel",
        "subtype": "noteOff",
        "noteNumber": 52,
        "velocity": 0
    },
    {
        "deltaTime": 0,
        "channel": 0,
        "type": "channel",
        "subtype": "noteOff",
        "noteNumber": 40,
        "velocity": 0
    },
    {
        "deltaTime": 0,
        "channel": 0,
        "type": "channel",
        "subtype": "noteOff",
        "noteNumber": 52,
        "velocity": 0
    },
    {
        "deltaTime": 0,
        "channel": 0,
        "type": "channel",
        "noteNumber": 61,
        "velocity": 82,
        "subtype": "noteOn"
    },
    {
        "deltaTime": 0,
        "channel": 0,
        "type": "channel",
        "noteNumber": 44,
        "velocity": 61,
        "subtype": "noteOn"
    },
    {
        "deltaTime": 0,
        "channel": 0,
        "type": "channel",
        "noteNumber": 47,
        "velocity": 61,
        "subtype": "noteOn"
    },
    {
        "deltaTime": 0,
        "channel": 0,
        "type": "channel",
        "noteNumber": 52,
        "velocity": 61,
        "subtype": "noteOn"
    },
    {
        "deltaTime": 128,
        "channel": 0,
        "type": "channel",
        "noteNumber": 64,
        "velocity": 82,
        "subtype": "noteOn"
    },
    {
        "deltaTime": 127,
        "channel": 0,
        "type": "channel",
        "noteNumber": 68,
        "velocity": 82,
        "subtype": "noteOn"
    },
    {
        "deltaTime": 705,
        "channel": 0,
        "type": "channel",
        "subtype": "noteOff",
        "noteNumber": 61,
        "velocity": 0
    },
    {
        "deltaTime": 0,
        "channel": 0,
        "type": "channel",
        "subtype": "noteOff",
        "noteNumber": 64,
        "velocity": 0
    },
    {
        "deltaTime": 0,
        "channel": 0,
        "type": "channel",
        "subtype": "noteOff",
        "noteNumber": 68,
        "velocity": 0
    },
    {
        "deltaTime": 0,
        "channel": 0,
        "type": "channel",
        "noteNumber": 64,
        "velocity": 78,
        "subtype": "noteOn"
    },
    {
        "deltaTime": 480,
        "channel": 0,
        "type": "channel",
        "subtype": "noteOff",
        "noteNumber": 64,
        "velocity": 0
    },
    {
        "deltaTime": 0,
        "channel": 0,
        "type": "channel",
        "noteNumber": 61,
        "velocity": 71,
        "subtype": "noteOn"
    },
    {
        "deltaTime": 480,
        "channel": 0,
        "type": "channel",
        "subtype": "noteOff",
        "noteNumber": 61,
        "velocity": 0
    },
    {
        "deltaTime": 0,
        "channel": 0,
        "type": "channel",
        "noteNumber": 68,
        "velocity": 79,
        "subtype": "noteOn"
    },
    {
        "deltaTime": 480,
        "channel": 0,
        "type": "channel",
        "subtype": "noteOff",
        "noteNumber": 68,
        "velocity": 0
    },
    {
        "deltaTime": 0,
        "channel": 0,
        "type": "channel",
        "noteNumber": 61,
        "velocity": 67,
        "subtype": "noteOn"
    },
    {
        "deltaTime": 480,
        "channel": 0,
        "type": "channel",
        "subtype": "noteOff",
        "noteNumber": 61,
        "velocity": 0
    },
    {
        "deltaTime": 0,
        "channel": 0,
        "type": "channel",
        "noteNumber": 64,
        "velocity": 72,
        "subtype": "noteOn"
    },
    {
        "deltaTime": 480,
        "channel": 0,
        "type": "channel",
        "subtype": "noteOff",
        "noteNumber": 64,
        "velocity": 0
    },
    {
        "deltaTime": 0,
        "channel": 0,
        "type": "channel",
        "noteNumber": 61,
        "velocity": 67,
        "subtype": "noteOn"
    },
    {
        "deltaTime": 480,
        "channel": 0,
        "type": "channel",
        "subtype": "noteOff",
        "noteNumber": 61,
        "velocity": 0
    },
    {
        "deltaTime": 0,
        "channel": 0,
        "type": "channel",
        "subtype": "noteOff",
        "noteNumber": 44,
        "velocity": 0
    },
    {
        "deltaTime": 0,
        "channel": 0,
        "type": "channel",
        "subtype": "noteOff",
        "noteNumber": 47,
        "velocity": 0
    },
    {
        "deltaTime": 0,
        "channel": 0,
        "type": "channel",
        "subtype": "noteOff",
        "noteNumber": 52,
        "velocity": 0
    },
    {
        "deltaTime": 0,
        "channel": 0,
        "type": "channel",
        "noteNumber": 62,
        "velocity": 79,
        "subtype": "noteOn"
    },
    {
        "deltaTime": 0,
        "channel": 0,
        "type": "channel",
        "noteNumber": 38,
        "velocity": 61,
        "subtype": "noteOn"
    },
    {
        "deltaTime": 0,
        "channel": 0,
        "type": "channel",
        "noteNumber": 42,
        "velocity": 61,
        "subtype": "noteOn"
    },
    {
        "deltaTime": 0,
        "channel": 0,
        "type": "channel",
        "noteNumber": 50,
        "velocity": 61,
        "subtype": "noteOn"
    },
    {
        "deltaTime": 128,
        "channel": 0,
        "type": "channel",
        "noteNumber": 66,
        "velocity": 79,
        "subtype": "noteOn"
    },
    {
        "deltaTime": 127,
        "channel": 0,
        "type": "channel",
        "noteNumber": 69,
        "velocity": 79,
        "subtype": "noteOn"
    },
    {
        "deltaTime": 705,
        "channel": 0,
        "type": "channel",
        "subtype": "noteOff",
        "noteNumber": 62,
        "velocity": 0
    },
    {
        "deltaTime": 0,
        "channel": 0,
        "type": "channel",
        "subtype": "noteOff",
        "noteNumber": 66,
        "velocity": 0
    },
    {
        "deltaTime": 0,
        "channel": 0,
        "type": "channel",
        "subtype": "noteOff",
        "noteNumber": 69,
        "velocity": 0
    },
    {
        "deltaTime": 0,
        "channel": 0,
        "type": "channel",
        "noteNumber": 66,
        "velocity": 73,
        "subtype": "noteOn"
    },
    {
        "deltaTime": 480,
        "channel": 0,
        "type": "channel",
        "subtype": "noteOff",
        "noteNumber": 66,
        "velocity": 0
    },
    {
        "deltaTime": 0,
        "channel": 0,
        "type": "channel",
        "noteNumber": 62,
        "velocity": 66,
        "subtype": "noteOn"
    },
    {
        "deltaTime": 480,
        "channel": 0,
        "type": "channel",
        "subtype": "noteOff",
        "noteNumber": 62,
        "velocity": 0
    },
    {
        "deltaTime": 0,
        "channel": 0,
        "type": "channel",
        "noteNumber": 69,
        "velocity": 78,
        "subtype": "noteOn"
    },
    {
        "deltaTime": 480,
        "channel": 0,
        "type": "channel",
        "subtype": "noteOff",
        "noteNumber": 69,
        "velocity": 0
    },
    {
        "deltaTime": 0,
        "channel": 0,
        "type": "channel",
        "noteNumber": 62,
        "velocity": 65,
        "subtype": "noteOn"
    },
    {
        "deltaTime": 480,
        "channel": 0,
        "type": "channel",
        "subtype": "noteOff",
        "noteNumber": 62,
        "velocity": 0
    },
    {
        "deltaTime": 0,
        "channel": 0,
        "type": "channel",
        "noteNumber": 66,
        "velocity": 73,
        "subtype": "noteOn"
    },
    {
        "deltaTime": 480,
        "channel": 0,
        "type": "channel",
        "subtype": "noteOff",
        "noteNumber": 66,
        "velocity": 0
    },
    {
        "deltaTime": 0,
        "channel": 0,
        "type": "channel",
        "noteNumber": 62,
        "velocity": 66,
        "subtype": "noteOn"
    },
    {
        "deltaTime": 480,
        "channel": 0,
        "type": "channel",
        "subtype": "noteOff",
        "noteNumber": 62,
        "velocity": 0
    },
    {
        "deltaTime": 0,
        "channel": 0,
        "type": "channel",
        "subtype": "noteOff",
        "noteNumber": 38,
        "velocity": 0
    },
    {
        "deltaTime": 0,
        "channel": 0,
        "type": "channel",
        "subtype": "noteOff",
        "noteNumber": 42,
        "velocity": 0
    },
    {
        "deltaTime": 0,
        "channel": 0,
        "type": "channel",
        "subtype": "noteOff",
        "noteNumber": 50,
        "velocity": 0
    },
    {
        "deltaTime": 0,
        "channel": 0,
        "type": "channel",
        "noteNumber": 57,
        "velocity": 71,
        "subtype": "noteOn"
    },
    {
        "deltaTime": 0,
        "channel": 0,
        "type": "channel",
        "noteNumber": 40,
        "velocity": 61,
        "subtype": "noteOn"
    },
    {
        "deltaTime": 0,
        "channel": 0,
        "type": "channel",
        "noteNumber": 52,
        "velocity": 61,
        "subtype": "noteOn"
    },
    {
        "deltaTime": 128,
        "channel": 0,
        "type": "channel",
        "noteNumber": 61,
        "velocity": 71,
        "subtype": "noteOn"
    },
    {
        "deltaTime": 127,
        "channel": 0,
        "type": "channel",
        "noteNumber": 64,
        "velocity": 71,
        "subtype": "noteOn"
    },
    {
        "deltaTime": 705,
        "channel": 0,
        "type": "channel",
        "subtype": "noteOff",
        "noteNumber": 57,
        "velocity": 0
    },
    {
        "deltaTime": 0,
        "channel": 0,
        "type": "channel",
        "subtype": "noteOff",
        "noteNumber": 61,
        "velocity": 0
    },
    {
        "deltaTime": 0,
        "channel": 0,
        "type": "channel",
        "subtype": "noteOff",
        "noteNumber": 64,
        "velocity": 0
    },
    {
        "deltaTime": 0,
        "channel": 0,
        "type": "channel",
        "noteNumber": 61,
        "velocity": 67,
        "subtype": "noteOn"
    },
    {
        "deltaTime": 480,
        "channel": 0,
        "type": "channel",
        "subtype": "noteOff",
        "noteNumber": 61,
        "velocity": 0
    },
    {
        "deltaTime": 0,
        "channel": 0,
        "type": "channel",
        "noteNumber": 57,
        "velocity": 63,
        "subtype": "noteOn"
    },
    {
        "deltaTime": 480,
        "channel": 0,
        "type": "channel",
        "subtype": "noteOff",
        "noteNumber": 57,
        "velocity": 0
    },
    {
        "deltaTime": 0,
        "channel": 0,
        "type": "channel",
        "noteNumber": 52,
        "velocity": 69,
        "subtype": "noteOn"
    },
    {
        "deltaTime": 128,
        "channel": 0,
        "type": "channel",
        "noteNumber": 56,
        "velocity": 69,
        "subtype": "noteOn"
    },
    {
        "deltaTime": 127,
        "channel": 0,
        "type": "channel",
        "noteNumber": 59,
        "velocity": 69,
        "subtype": "noteOn"
    },
    {
        "deltaTime": 705,
        "channel": 0,
        "type": "channel",
        "subtype": "noteOff",
        "noteNumber": 52,
        "velocity": 0
    },
    {
        "deltaTime": 0,
        "channel": 0,
        "type": "channel",
        "subtype": "noteOff",
        "noteNumber": 56,
        "velocity": 0
    },
    {
        "deltaTime": 0,
        "channel": 0,
        "type": "channel",
        "subtype": "noteOff",
        "noteNumber": 59,
        "velocity": 0
    },
    {
        "deltaTime": 0,
        "channel": 0,
        "type": "channel",
        "noteNumber": 56,
        "velocity": 67,
        "subtype": "noteOn"
    },
    {
        "deltaTime": 480,
        "channel": 0,
        "type": "channel",
        "subtype": "noteOff",
        "noteNumber": 56,
        "velocity": 0
    },
    {
        "deltaTime": 0,
        "channel": 0,
        "type": "channel",
        "noteNumber": 52,
        "velocity": 64,
        "subtype": "noteOn"
    },
    {
        "deltaTime": 480,
        "channel": 0,
        "type": "channel",
        "subtype": "noteOff",
        "noteNumber": 52,
        "velocity": 0
    },
    {
        "deltaTime": 0,
        "channel": 0,
        "type": "channel",
        "subtype": "noteOff",
        "noteNumber": 40,
        "velocity": 0
    },
    {
        "deltaTime": 0,
        "channel": 0,
        "type": "channel",
        "subtype": "noteOff",
        "noteNumber": 52,
        "velocity": 0
    },
    {
        "deltaTime": 0,
        "channel": 0,
        "type": "channel",
        "noteNumber": 57,
        "velocity": 81,
        "subtype": "noteOn"
    },
    {
        "deltaTime": 0,
        "channel": 0,
        "type": "channel",
        "noteNumber": 42,
        "velocity": 61,
        "subtype": "noteOn"
    },
    {
        "deltaTime": 0,
        "channel": 0,
        "type": "channel",
        "noteNumber": 54,
        "velocity": 61,
        "subtype": "noteOn"
    },
    {
        "deltaTime": 128,
        "channel": 0,
        "type": "channel",
        "noteNumber": 61,
        "velocity": 81,
        "subtype": "noteOn"
    },
    {
        "deltaTime": 127,
        "channel": 0,
        "type": "channel",
        "noteNumber": 66,
        "velocity": 81,
        "subtype": "noteOn"
    },
    {
        "deltaTime": 705,
        "channel": 0,
        "type": "channel",
        "subtype": "noteOff",
        "noteNumber": 57,
        "velocity": 0
    },
    {
        "deltaTime": 0,
        "channel": 0,
        "type": "channel",
        "subtype": "noteOff",
        "noteNumber": 61,
        "velocity": 0
    },
    {
        "deltaTime": 0,
        "channel": 0,
        "type": "channel",
        "subtype": "noteOff",
        "noteNumber": 66,
        "velocity": 0
    },
    {
        "deltaTime": 0,
        "channel": 0,
        "type": "channel",
        "noteNumber": 61,
        "velocity": 73,
        "subtype": "noteOn"
    },
    {
        "deltaTime": 480,
        "channel": 0,
        "type": "channel",
        "subtype": "noteOff",
        "noteNumber": 61,
        "velocity": 0
    },
    {
        "deltaTime": 0,
        "channel": 0,
        "type": "channel",
        "noteNumber": 57,
        "velocity": 67,
        "subtype": "noteOn"
    },
    {
        "deltaTime": 480,
        "channel": 0,
        "type": "channel",
        "subtype": "noteOff",
        "noteNumber": 57,
        "velocity": 0
    },
    {
        "deltaTime": 0,
        "channel": 0,
        "type": "channel",
        "noteNumber": 66,
        "velocity": 80,
        "subtype": "noteOn"
    },
    {
        "deltaTime": 480,
        "channel": 0,
        "type": "channel",
        "subtype": "noteOff",
        "noteNumber": 66,
        "velocity": 0
    },
    {
        "deltaTime": 0,
        "channel": 0,
        "type": "channel",
        "noteNumber": 57,
        "velocity": 64,
        "subtype": "noteOn"
    },
    {
        "deltaTime": 480,
        "channel": 0,
        "type": "channel",
        "subtype": "noteOff",
        "noteNumber": 57,
        "velocity": 0
    },
    {
        "deltaTime": 0,
        "channel": 0,
        "type": "channel",
        "noteNumber": 61,
        "velocity": 72,
        "subtype": "noteOn"
    },
    {
        "deltaTime": 480,
        "channel": 0,
        "type": "channel",
        "subtype": "noteOff",
        "noteNumber": 61,
        "velocity": 0
    },
    {
        "deltaTime": 0,
        "channel": 0,
        "type": "channel",
        "noteNumber": 57,
        "velocity": 65,
        "subtype": "noteOn"
    },
    {
        "deltaTime": 480,
        "channel": 0,
        "type": "channel",
        "subtype": "noteOff",
        "noteNumber": 57,
        "velocity": 0
    },
    {
        "deltaTime": 0,
        "channel": 0,
        "type": "channel",
        "subtype": "noteOff",
        "noteNumber": 42,
        "velocity": 0
    },
    {
        "deltaTime": 0,
        "channel": 0,
        "type": "channel",
        "subtype": "noteOff",
        "noteNumber": 54,
        "velocity": 0
    },
    {
        "deltaTime": 0,
        "channel": 0,
        "type": "channel",
        "noteNumber": 54,
        "velocity": 76,
        "subtype": "noteOn"
    },
    {
        "deltaTime": 0,
        "channel": 0,
        "type": "channel",
        "noteNumber": 42,
        "velocity": 61,
        "subtype": "noteOn"
    },
    {
        "deltaTime": 0,
        "channel": 0,
        "type": "channel",
        "noteNumber": 54,
        "velocity": 61,
        "subtype": "noteOn"
    },
    {
        "deltaTime": 128,
        "channel": 0,
        "type": "channel",
        "noteNumber": 59,
        "velocity": 76,
        "subtype": "noteOn"
    },
    {
        "deltaTime": 127,
        "channel": 0,
        "type": "channel",
        "noteNumber": 63,
        "velocity": 76,
        "subtype": "noteOn"
    },
    {
        "deltaTime": 705,
        "channel": 0,
        "type": "channel",
        "subtype": "noteOff",
        "noteNumber": 54,
        "velocity": 0
    },
    {
        "deltaTime": 0,
        "channel": 0,
        "type": "channel",
        "subtype": "noteOff",
        "noteNumber": 59,
        "velocity": 0
    },
    {
        "deltaTime": 0,
        "channel": 0,
        "type": "channel",
        "subtype": "noteOff",
        "noteNumber": 63,
        "velocity": 0
    },
    {
        "deltaTime": 0,
        "channel": 0,
        "type": "channel",
        "noteNumber": 63,
        "velocity": 75,
        "subtype": "noteOn"
    },
    {
        "deltaTime": 480,
        "channel": 0,
        "type": "channel",
        "subtype": "noteOff",
        "noteNumber": 63,
        "velocity": 0
    },
    {
        "deltaTime": 0,
        "channel": 0,
        "type": "channel",
        "noteNumber": 59,
        "velocity": 68,
        "subtype": "noteOn"
    },
    {
        "deltaTime": 480,
        "channel": 0,
        "type": "channel",
        "subtype": "noteOff",
        "noteNumber": 59,
        "velocity": 0
    },
    {
        "deltaTime": 0,
        "channel": 0,
        "type": "channel",
        "noteNumber": 66,
        "velocity": 79,
        "subtype": "noteOn"
    },
    {
        "deltaTime": 480,
        "channel": 0,
        "type": "channel",
        "subtype": "noteOff",
        "noteNumber": 66,
        "velocity": 0
    },
    {
        "deltaTime": 0,
        "channel": 0,
        "type": "channel",
        "noteNumber": 59,
        "velocity": 66,
        "subtype": "noteOn"
    },
    {
        "deltaTime": 480,
        "channel": 0,
        "type": "channel",
        "subtype": "noteOff",
        "noteNumber": 59,
        "velocity": 0
    },
    {
        "deltaTime": 0,
        "channel": 0,
        "type": "channel",
        "noteNumber": 63,
        "velocity": 74,
        "subtype": "noteOn"
    },
    {
        "deltaTime": 480,
        "channel": 0,
        "type": "channel",
        "subtype": "noteOff",
        "noteNumber": 63,
        "velocity": 0
    },
    {
        "deltaTime": 0,
        "channel": 0,
        "type": "channel",
        "noteNumber": 59,
        "velocity": 66,
        "subtype": "noteOn"
    },
    {
        "deltaTime": 480,
        "channel": 0,
        "type": "channel",
        "subtype": "noteOff",
        "noteNumber": 59,
        "velocity": 0
    },
    {
        "deltaTime": 0,
        "channel": 0,
        "type": "channel",
        "subtype": "noteOff",
        "noteNumber": 42,
        "velocity": 0
    },
    {
        "deltaTime": 0,
        "channel": 0,
        "type": "channel",
        "subtype": "noteOff",
        "noteNumber": 54,
        "velocity": 0
    },
    {
        "deltaTime": 0,
        "channel": 0,
        "type": "channel",
        "noteNumber": 57,
        "velocity": 77,
        "subtype": "noteOn"
    },
    {
        "deltaTime": 0,
        "channel": 0,
        "type": "channel",
        "noteNumber": 42,
        "velocity": 61,
        "subtype": "noteOn"
    },
    {
        "deltaTime": 0,
        "channel": 0,
        "type": "channel",
        "noteNumber": 54,
        "velocity": 61,
        "subtype": "noteOn"
    },
    {
        "deltaTime": 128,
        "channel": 0,
        "type": "channel",
        "noteNumber": 62,
        "velocity": 77,
        "subtype": "noteOn"
    },
    {
        "deltaTime": 127,
        "channel": 0,
        "type": "channel",
        "noteNumber": 65,
        "velocity": 77,
        "subtype": "noteOn"
    },
    {
        "deltaTime": 705,
        "channel": 0,
        "type": "channel",
        "subtype": "noteOff",
        "noteNumber": 57,
        "velocity": 0
    },
    {
        "deltaTime": 0,
        "channel": 0,
        "type": "channel",
        "subtype": "noteOff",
        "noteNumber": 62,
        "velocity": 0
    },
    {
        "deltaTime": 0,
        "channel": 0,
        "type": "channel",
        "subtype": "noteOff",
        "noteNumber": 65,
        "velocity": 0
    },
    {
        "deltaTime": 0,
        "channel": 0,
        "type": "channel",
        "noteNumber": 57,
        "velocity": 64,
        "subtype": "noteOn"
    },
    {
        "deltaTime": 480,
        "channel": 0,
        "type": "channel",
        "subtype": "noteOff",
        "noteNumber": 57,
        "velocity": 0
    },
    {
        "deltaTime": 0,
        "channel": 0,
        "type": "channel",
        "noteNumber": 62,
        "velocity": 73,
        "subtype": "noteOn"
    },
    {
        "deltaTime": 480,
        "channel": 0,
        "type": "channel",
        "subtype": "noteOff",
        "noteNumber": 62,
        "velocity": 0
    },
    {
        "deltaTime": 0,
        "channel": 0,
        "type": "channel",
        "noteNumber": 65,
        "velocity": 77,
        "subtype": "noteOn"
    },
    {
        "deltaTime": 480,
        "channel": 0,
        "type": "channel",
        "subtype": "noteOff",
        "noteNumber": 65,
        "velocity": 0
    },
    {
        "deltaTime": 0,
        "channel": 0,
        "type": "channel",
        "noteNumber": 57,
        "velocity": 63,
        "subtype": "noteOn"
    },
    {
        "deltaTime": 480,
        "channel": 0,
        "type": "channel",
        "subtype": "noteOff",
        "noteNumber": 57,
        "velocity": 0
    },
    {
        "deltaTime": 0,
        "channel": 0,
        "type": "channel",
        "noteNumber": 62,
        "velocity": 73,
        "subtype": "noteOn"
    },
    {
        "deltaTime": 480,
        "channel": 0,
        "type": "channel",
        "subtype": "noteOff",
        "noteNumber": 62,
        "velocity": 0
    },
    {
        "deltaTime": 0,
        "channel": 0,
        "type": "channel",
        "noteNumber": 57,
        "velocity": 64,
        "subtype": "noteOn"
    },
    {
        "deltaTime": 480,
        "channel": 0,
        "type": "channel",
        "subtype": "noteOff",
        "noteNumber": 57,
        "velocity": 0
    },
    {
        "deltaTime": 0,
        "channel": 0,
        "type": "channel",
        "subtype": "noteOff",
        "noteNumber": 42,
        "velocity": 0
    },
    {
        "deltaTime": 0,
        "channel": 0,
        "type": "channel",
        "subtype": "noteOff",
        "noteNumber": 54,
        "velocity": 0
    },
    {
        "deltaTime": 0,
        "channel": 0,
        "type": "channel",
        "noteNumber": 52,
        "velocity": 73,
        "subtype": "noteOn"
    },
    {
        "deltaTime": 0,
        "channel": 0,
        "type": "channel",
        "noteNumber": 40,
        "velocity": 61,
        "subtype": "noteOn"
    },
    {
        "deltaTime": 0,
        "channel": 0,
        "type": "channel",
        "noteNumber": 52,
        "velocity": 61,
        "subtype": "noteOn"
    },
    {
        "deltaTime": 128,
        "channel": 0,
        "type": "channel",
        "noteNumber": 57,
        "velocity": 73,
        "subtype": "noteOn"
    },
    {
        "deltaTime": 127,
        "channel": 0,
        "type": "channel",
        "noteNumber": 61,
        "velocity": 73,
        "subtype": "noteOn"
    },
    {
        "deltaTime": 705,
        "channel": 0,
        "type": "channel",
        "subtype": "noteOff",
        "noteNumber": 52,
        "velocity": 0
    },
    {
        "deltaTime": 0,
        "channel": 0,
        "type": "channel",
        "subtype": "noteOff",
        "noteNumber": 57,
        "velocity": 0
    },
    {
        "deltaTime": 0,
        "channel": 0,
        "type": "channel",
        "subtype": "noteOff",
        "noteNumber": 61,
        "velocity": 0
    },
    {
        "deltaTime": 0,
        "channel": 0,
        "type": "channel",
        "noteNumber": 57,
        "velocity": 67,
        "subtype": "noteOn"
    },
    {
        "deltaTime": 480,
        "channel": 0,
        "type": "channel",
        "subtype": "noteOff",
        "noteNumber": 57,
        "velocity": 0
    },
    {
        "deltaTime": 0,
        "channel": 0,
        "type": "channel",
        "noteNumber": 52,
        "velocity": 63,
        "subtype": "noteOn"
    },
    {
        "deltaTime": 480,
        "channel": 0,
        "type": "channel",
        "subtype": "noteOff",
        "noteNumber": 52,
        "velocity": 0
    },
    {
        "deltaTime": 0,
        "channel": 0,
        "type": "channel",
        "noteNumber": 64,
        "velocity": 82,
        "subtype": "noteOn"
    },
    {
        "deltaTime": 0,
        "channel": 0,
        "type": "channel",
        "noteNumber": 68,
        "velocity": 82,
        "subtype": "noteOn"
    },
    {
        "deltaTime": 0,
        "channel": 0,
        "type": "channel",
        "noteNumber": 71,
        "velocity": 82,
        "subtype": "noteOn"
    },
    {
        "deltaTime": 1920,
        "channel": 0,
        "type": "channel",
        "subtype": "noteOff",
        "noteNumber": 64,
        "velocity": 0
    },
    {
        "deltaTime": 0,
        "channel": 0,
        "type": "channel",
        "subtype": "noteOff",
        "noteNumber": 68,
        "velocity": 0
    },
    {
        "deltaTime": 0,
        "channel": 0,
        "type": "channel",
        "subtype": "noteOff",
        "noteNumber": 71,
        "velocity": 0
    },
    {
        "deltaTime": 0,
        "channel": 0,
        "type": "channel",
        "subtype": "noteOff",
        "noteNumber": 40,
        "velocity": 0
    },
    {
        "deltaTime": 0,
        "channel": 0,
        "type": "channel",
        "subtype": "noteOff",
        "noteNumber": 52,
        "velocity": 0
    },
    {
        "deltaTime": 0,
        "channel": 0,
        "type": "channel",
        "noteNumber": 57,
        "velocity": 69,
        "subtype": "noteOn"
    },
    {
        "deltaTime": 0,
        "channel": 0,
        "type": "channel",
        "noteNumber": 40,
        "velocity": 84,
        "subtype": "noteOn"
    },
    {
        "deltaTime": 0,
        "channel": 0,
        "type": "channel",
        "noteNumber": 52,
        "velocity": 84,
        "subtype": "noteOn"
    },
    {
        "deltaTime": 240,
        "channel": 0,
        "type": "channel",
        "subtype": "noteOff",
        "noteNumber": 57,
        "velocity": 0
    },
    {
        "deltaTime": 0,
        "channel": 0,
        "type": "channel",
        "noteNumber": 61,
        "velocity": 73,
        "subtype": "noteOn"
    },
    {
        "deltaTime": 240,
        "channel": 0,
        "type": "channel",
        "subtype": "noteOff",
        "noteNumber": 61,
        "velocity": 0
    },
    {
        "deltaTime": 0,
        "channel": 0,
        "type": "channel",
        "noteNumber": 64,
        "velocity": 77,
        "subtype": "noteOn"
    },
    {
        "deltaTime": 240,
        "channel": 0,
        "type": "channel",
        "subtype": "noteOff",
        "noteNumber": 64,
        "velocity": 0
    },
    {
        "deltaTime": 0,
        "channel": 0,
        "type": "channel",
        "noteNumber": 61,
        "velocity": 71,
        "subtype": "noteOn"
    },
    {
        "deltaTime": 240,
        "channel": 0,
        "type": "channel",
        "subtype": "noteOff",
        "noteNumber": 61,
        "velocity": 0
    },
    {
        "deltaTime": 0,
        "channel": 0,
        "type": "channel",
        "noteNumber": 69,
        "velocity": 82,
        "subtype": "noteOn"
    },
    {
        "deltaTime": 240,
        "channel": 0,
        "type": "channel",
        "subtype": "noteOff",
        "noteNumber": 69,
        "velocity": 0
    },
    {
        "deltaTime": 0,
        "channel": 0,
        "type": "channel",
        "noteNumber": 64,
        "velocity": 74,
        "subtype": "noteOn"
    },
    {
        "deltaTime": 240,
        "channel": 0,
        "type": "channel",
        "subtype": "noteOff",
        "noteNumber": 64,
        "velocity": 0
    },
    {
        "deltaTime": 0,
        "channel": 0,
        "type": "channel",
        "subtype": "noteOff",
        "noteNumber": 40,
        "velocity": 0
    },
    {
        "deltaTime": 0,
        "channel": 0,
        "type": "channel",
        "subtype": "noteOff",
        "noteNumber": 52,
        "velocity": 0
    },
    {
        "deltaTime": 0,
        "channel": 0,
        "type": "channel",
        "noteNumber": 73,
        "velocity": 82,
        "subtype": "noteOn"
    },
    {
        "deltaTime": 0,
        "channel": 0,
        "type": "channel",
        "noteNumber": 40,
        "velocity": 71,
        "subtype": "noteOn"
    },
    {
        "deltaTime": 0,
        "channel": 0,
        "type": "channel",
        "noteNumber": 52,
        "velocity": 71,
        "subtype": "noteOn"
    },
    {
        "deltaTime": 240,
        "channel": 0,
        "type": "channel",
        "subtype": "noteOff",
        "noteNumber": 73,
        "velocity": 0
    },
    {
        "deltaTime": 0,
        "channel": 0,
        "type": "channel",
        "noteNumber": 69,
        "velocity": 80,
        "subtype": "noteOn"
    },
    {
        "deltaTime": 240,
        "channel": 0,
        "type": "channel",
        "subtype": "noteOff",
        "noteNumber": 69,
        "velocity": 0
    },
    {
        "deltaTime": 0,
        "channel": 0,
        "type": "channel",
        "noteNumber": 76,
        "velocity": 82,
        "subtype": "noteOn"
    },
    {
        "deltaTime": 240,
        "channel": 0,
        "type": "channel",
        "subtype": "noteOff",
        "noteNumber": 76,
        "velocity": 0
    },
    {
        "deltaTime": 0,
        "channel": 0,
        "type": "channel",
        "noteNumber": 73,
        "velocity": 82,
        "subtype": "noteOn"
    },
    {
        "deltaTime": 240,
        "channel": 0,
        "type": "channel",
        "subtype": "noteOff",
        "noteNumber": 73,
        "velocity": 0
    },
    {
        "deltaTime": 0,
        "channel": 0,
        "type": "channel",
        "subtype": "noteOff",
        "noteNumber": 40,
        "velocity": 0
    },
    {
        "deltaTime": 0,
        "channel": 0,
        "type": "channel",
        "subtype": "noteOff",
        "noteNumber": 52,
        "velocity": 0
    },
    {
        "deltaTime": 0,
        "channel": 0,
        "type": "channel",
        "noteNumber": 69,
        "velocity": 72,
        "subtype": "noteOn"
    },
    {
        "deltaTime": 0,
        "channel": 0,
        "type": "channel",
        "noteNumber": 40,
        "velocity": 71,
        "subtype": "noteOn"
    },
    {
        "deltaTime": 0,
        "channel": 0,
        "type": "channel",
        "noteNumber": 52,
        "velocity": 71,
        "subtype": "noteOn"
    },
    {
        "deltaTime": 240,
        "channel": 0,
        "type": "channel",
        "subtype": "noteOff",
        "noteNumber": 69,
        "velocity": 0
    },
    {
        "deltaTime": 0,
        "channel": 0,
        "type": "channel",
        "noteNumber": 64,
        "velocity": 60,
        "subtype": "noteOn"
    },
    {
        "deltaTime": 240,
        "channel": 0,
        "type": "channel",
        "subtype": "noteOff",
        "noteNumber": 64,
        "velocity": 0
    },
    {
        "deltaTime": 0,
        "channel": 0,
        "type": "channel",
        "noteNumber": 69,
        "velocity": 74,
        "subtype": "noteOn"
    },
    {
        "deltaTime": 240,
        "channel": 0,
        "type": "channel",
        "subtype": "noteOff",
        "noteNumber": 69,
        "velocity": 0
    },
    {
        "deltaTime": 0,
        "channel": 0,
        "type": "channel",
        "noteNumber": 64,
        "velocity": 60,
        "subtype": "noteOn"
    },
    {
        "deltaTime": 240,
        "channel": 0,
        "type": "channel",
        "subtype": "noteOff",
        "noteNumber": 64,
        "velocity": 0
    },
    {
        "deltaTime": 0,
        "channel": 0,
        "type": "channel",
        "subtype": "noteOff",
        "noteNumber": 40,
        "velocity": 0
    },
    {
        "deltaTime": 0,
        "channel": 0,
        "type": "channel",
        "subtype": "noteOff",
        "noteNumber": 52,
        "velocity": 0
    },
    {
        "deltaTime": 0,
        "channel": 0,
        "type": "channel",
        "noteNumber": 61,
        "velocity": 60,
        "subtype": "noteOn"
    },
    {
        "deltaTime": 0,
        "channel": 0,
        "type": "channel",
        "noteNumber": 42,
        "velocity": 72,
        "subtype": "noteOn"
    },
    {
        "deltaTime": 0,
        "channel": 0,
        "type": "channel",
        "noteNumber": 51,
        "velocity": 72,
        "subtype": "noteOn"
    },
    {
        "deltaTime": 240,
        "channel": 0,
        "type": "channel",
        "subtype": "noteOff",
        "noteNumber": 61,
        "velocity": 0
    },
    {
        "deltaTime": 0,
        "channel": 0,
        "type": "channel",
        "noteNumber": 57,
        "velocity": 60,
        "subtype": "noteOn"
    },
    {
        "deltaTime": 240,
        "channel": 0,
        "type": "channel",
        "subtype": "noteOff",
        "noteNumber": 57,
        "velocity": 0
    },
    {
        "deltaTime": 0,
        "channel": 0,
        "type": "channel",
        "subtype": "noteOff",
        "noteNumber": 42,
        "velocity": 0
    },
    {
        "deltaTime": 0,
        "channel": 0,
        "type": "channel",
        "subtype": "noteOff",
        "noteNumber": 51,
        "velocity": 0
    },
    {
        "deltaTime": 0,
        "channel": 0,
        "type": "channel",
        "noteNumber": 59,
        "velocity": 60,
        "subtype": "noteOn"
    },
    {
        "deltaTime": 0,
        "channel": 0,
        "type": "channel",
        "noteNumber": 42,
        "velocity": 74,
        "subtype": "noteOn"
    },
    {
        "deltaTime": 0,
        "channel": 0,
        "type": "channel",
        "noteNumber": 51,
        "velocity": 74,
        "subtype": "noteOn"
    },
    {
        "deltaTime": 0,
        "channel": 0,
        "type": "channel",
        "noteNumber": 54,
        "velocity": 74,
        "subtype": "noteOn"
    },
    {
        "deltaTime": 240,
        "channel": 0,
        "type": "channel",
        "subtype": "noteOff",
        "noteNumber": 59,
        "velocity": 0
    },
    {
        "deltaTime": 0,
        "channel": 0,
        "type": "channel",
        "noteNumber": 63,
        "velocity": 66,
        "subtype": "noteOn"
    },
    {
        "deltaTime": 240,
        "channel": 0,
        "type": "channel",
        "subtype": "noteOff",
        "noteNumber": 63,
        "velocity": 0
    },
    {
        "deltaTime": 0,
        "channel": 0,
        "type": "channel",
        "noteNumber": 66,
        "velocity": 78,
        "subtype": "noteOn"
    },
    {
        "deltaTime": 240,
        "channel": 0,
        "type": "channel",
        "subtype": "noteOff",
        "noteNumber": 66,
        "velocity": 0
    },
    {
        "deltaTime": 0,
        "channel": 0,
        "type": "channel",
        "noteNumber": 63,
        "velocity": 66,
        "subtype": "noteOn"
    },
    {
        "deltaTime": 240,
        "channel": 0,
        "type": "channel",
        "subtype": "noteOff",
        "noteNumber": 63,
        "velocity": 0
    },
    {
        "deltaTime": 0,
        "channel": 0,
        "type": "channel",
        "noteNumber": 71,
        "velocity": 82,
        "subtype": "noteOn"
    },
    {
        "deltaTime": 240,
        "channel": 0,
        "type": "channel",
        "subtype": "noteOff",
        "noteNumber": 71,
        "velocity": 0
    },
    {
        "deltaTime": 0,
        "channel": 0,
        "type": "channel",
        "noteNumber": 66,
        "velocity": 76,
        "subtype": "noteOn"
    },
    {
        "deltaTime": 240,
        "channel": 0,
        "type": "channel",
        "subtype": "noteOff",
        "noteNumber": 66,
        "velocity": 0
    },
    {
        "deltaTime": 0,
        "channel": 0,
        "type": "channel",
        "subtype": "noteOff",
        "noteNumber": 42,
        "velocity": 0
    },
    {
        "deltaTime": 0,
        "channel": 0,
        "type": "channel",
        "subtype": "noteOff",
        "noteNumber": 51,
        "velocity": 0
    },
    {
        "deltaTime": 0,
        "channel": 0,
        "type": "channel",
        "subtype": "noteOff",
        "noteNumber": 54,
        "velocity": 0
    },
    {
        "deltaTime": 0,
        "channel": 0,
        "type": "channel",
        "noteNumber": 75,
        "velocity": 82,
        "subtype": "noteOn"
    },
    {
        "deltaTime": 0,
        "channel": 0,
        "type": "channel",
        "noteNumber": 42,
        "velocity": 72,
        "subtype": "noteOn"
    },
    {
        "deltaTime": 0,
        "channel": 0,
        "type": "channel",
        "noteNumber": 51,
        "velocity": 72,
        "subtype": "noteOn"
    },
    {
        "deltaTime": 0,
        "channel": 0,
        "type": "channel",
        "noteNumber": 54,
        "velocity": 72,
        "subtype": "noteOn"
    },
    {
        "deltaTime": 240,
        "channel": 0,
        "type": "channel",
        "subtype": "noteOff",
        "noteNumber": 75,
        "velocity": 0
    },
    {
        "deltaTime": 0,
        "channel": 0,
        "type": "channel",
        "noteNumber": 71,
        "velocity": 82,
        "subtype": "noteOn"
    },
    {
        "deltaTime": 240,
        "channel": 0,
        "type": "channel",
        "subtype": "noteOff",
        "noteNumber": 71,
        "velocity": 0
    },
    {
        "deltaTime": 0,
        "channel": 0,
        "type": "channel",
        "noteNumber": 66,
        "velocity": 67,
        "subtype": "noteOn"
    },
    {
        "deltaTime": 240,
        "channel": 0,
        "type": "channel",
        "subtype": "noteOff",
        "noteNumber": 66,
        "velocity": 0
    },
    {
        "deltaTime": 0,
        "channel": 0,
        "type": "channel",
        "noteNumber": 71,
        "velocity": 82,
        "subtype": "noteOn"
    },
    {
        "deltaTime": 240,
        "channel": 0,
        "type": "channel",
        "subtype": "noteOff",
        "noteNumber": 71,
        "velocity": 0
    },
    {
        "deltaTime": 0,
        "channel": 0,
        "type": "channel",
        "subtype": "noteOff",
        "noteNumber": 42,
        "velocity": 0
    },
    {
        "deltaTime": 0,
        "channel": 0,
        "type": "channel",
        "subtype": "noteOff",
        "noteNumber": 51,
        "velocity": 0
    },
    {
        "deltaTime": 0,
        "channel": 0,
        "type": "channel",
        "subtype": "noteOff",
        "noteNumber": 54,
        "velocity": 0
    },
    {
        "deltaTime": 0,
        "channel": 0,
        "type": "channel",
        "noteNumber": 66,
        "velocity": 65,
        "subtype": "noteOn"
    },
    {
        "deltaTime": 0,
        "channel": 0,
        "type": "channel",
        "noteNumber": 42,
        "velocity": 71,
        "subtype": "noteOn"
    },
    {
        "deltaTime": 0,
        "channel": 0,
        "type": "channel",
        "noteNumber": 51,
        "velocity": 71,
        "subtype": "noteOn"
    },
    {
        "deltaTime": 0,
        "channel": 0,
        "type": "channel",
        "noteNumber": 54,
        "velocity": 71,
        "subtype": "noteOn"
    },
    {
        "deltaTime": 240,
        "channel": 0,
        "type": "channel",
        "subtype": "noteOff",
        "noteNumber": 66,
        "velocity": 0
    },
    {
        "deltaTime": 0,
        "channel": 0,
        "type": "channel",
        "noteNumber": 63,
        "velocity": 60,
        "subtype": "noteOn"
    },
    {
        "deltaTime": 240,
        "channel": 0,
        "type": "channel",
        "subtype": "noteOff",
        "noteNumber": 63,
        "velocity": 0
    },
    {
        "deltaTime": 0,
        "channel": 0,
        "type": "channel",
        "noteNumber": 59,
        "velocity": 60,
        "subtype": "noteOn"
    },
    {
        "deltaTime": 240,
        "channel": 0,
        "type": "channel",
        "subtype": "noteOff",
        "noteNumber": 59,
        "velocity": 0
    },
    {
        "deltaTime": 0,
        "channel": 0,
        "type": "channel",
        "noteNumber": 63,
        "velocity": 62,
        "subtype": "noteOn"
    },
    {
        "deltaTime": 240,
        "channel": 0,
        "type": "channel",
        "subtype": "noteOff",
        "noteNumber": 63,
        "velocity": 0
    },
    {
        "deltaTime": 0,
        "channel": 0,
        "type": "channel",
        "subtype": "noteOff",
        "noteNumber": 42,
        "velocity": 0
    },
    {
        "deltaTime": 0,
        "channel": 0,
        "type": "channel",
        "subtype": "noteOff",
        "noteNumber": 51,
        "velocity": 0
    },
    {
        "deltaTime": 0,
        "channel": 0,
        "type": "channel",
        "subtype": "noteOff",
        "noteNumber": 54,
        "velocity": 0
    },
    {
        "deltaTime": 0,
        "channel": 0,
        "type": "channel",
        "noteNumber": 66,
        "velocity": 73,
        "subtype": "noteOn"
    },
    {
        "deltaTime": 0,
        "channel": 0,
        "type": "channel",
        "noteNumber": 42,
        "velocity": 73,
        "subtype": "noteOn"
    },
    {
        "deltaTime": 0,
        "channel": 0,
        "type": "channel",
        "noteNumber": 51,
        "velocity": 73,
        "subtype": "noteOn"
    },
    {
        "deltaTime": 0,
        "channel": 0,
        "type": "channel",
        "noteNumber": 54,
        "velocity": 73,
        "subtype": "noteOn"
    },
    {
        "deltaTime": 240,
        "channel": 0,
        "type": "channel",
        "subtype": "noteOff",
        "noteNumber": 66,
        "velocity": 0
    },
    {
        "deltaTime": 0,
        "channel": 0,
        "type": "channel",
        "noteNumber": 71,
        "velocity": 82,
        "subtype": "noteOn"
    },
    {
        "deltaTime": 240,
        "channel": 0,
        "type": "channel",
        "subtype": "noteOff",
        "noteNumber": 71,
        "velocity": 0
    },
    {
        "deltaTime": 0,
        "channel": 0,
        "type": "channel",
        "subtype": "noteOff",
        "noteNumber": 42,
        "velocity": 0
    },
    {
        "deltaTime": 0,
        "channel": 0,
        "type": "channel",
        "subtype": "noteOff",
        "noteNumber": 51,
        "velocity": 0
    },
    {
        "deltaTime": 0,
        "channel": 0,
        "type": "channel",
        "subtype": "noteOff",
        "noteNumber": 54,
        "velocity": 0
    },
    {
        "deltaTime": 0,
        "channel": 0,
        "type": "channel",
        "noteNumber": 74,
        "velocity": 82,
        "subtype": "noteOn"
    },
    {
        "deltaTime": 0,
        "channel": 0,
        "type": "channel",
        "noteNumber": 42,
        "velocity": 72,
        "subtype": "noteOn"
    },
    {
        "deltaTime": 0,
        "channel": 0,
        "type": "channel",
        "noteNumber": 50,
        "velocity": 72,
        "subtype": "noteOn"
    },
    {
        "deltaTime": 0,
        "channel": 0,
        "type": "channel",
        "noteNumber": 54,
        "velocity": 72,
        "subtype": "noteOn"
    },
    {
        "deltaTime": 240,
        "channel": 0,
        "type": "channel",
        "subtype": "noteOff",
        "noteNumber": 74,
        "velocity": 0
    },
    {
        "deltaTime": 0,
        "channel": 0,
        "type": "channel",
        "noteNumber": 71,
        "velocity": 82,
        "subtype": "noteOn"
    },
    {
        "deltaTime": 240,
        "channel": 0,
        "type": "channel",
        "subtype": "noteOff",
        "noteNumber": 71,
        "velocity": 0
    },
    {
        "deltaTime": 0,
        "channel": 0,
        "type": "channel",
        "noteNumber": 66,
        "velocity": 64,
        "subtype": "noteOn"
    },
    {
        "deltaTime": 240,
        "channel": 0,
        "type": "channel",
        "subtype": "noteOff",
        "noteNumber": 66,
        "velocity": 0
    },
    {
        "deltaTime": 0,
        "channel": 0,
        "type": "channel",
        "noteNumber": 62,
        "velocity": 60,
        "subtype": "noteOn"
    },
    {
        "deltaTime": 240,
        "channel": 0,
        "type": "channel",
        "subtype": "noteOff",
        "noteNumber": 62,
        "velocity": 0
    },
    {
        "deltaTime": 0,
        "channel": 0,
        "type": "channel",
        "noteNumber": 59,
        "velocity": 60,
        "subtype": "noteOn"
    },
    {
        "deltaTime": 240,
        "channel": 0,
        "type": "channel",
        "subtype": "noteOff",
        "noteNumber": 59,
        "velocity": 0
    },
    {
        "deltaTime": 0,
        "channel": 0,
        "type": "channel",
        "noteNumber": 66,
        "velocity": 72,
        "subtype": "noteOn"
    },
    {
        "deltaTime": 240,
        "channel": 0,
        "type": "channel",
        "subtype": "noteOff",
        "noteNumber": 66,
        "velocity": 0
    },
    {
        "deltaTime": 0,
        "channel": 0,
        "type": "channel",
        "subtype": "noteOff",
        "noteNumber": 42,
        "velocity": 0
    },
    {
        "deltaTime": 0,
        "channel": 0,
        "type": "channel",
        "subtype": "noteOff",
        "noteNumber": 50,
        "velocity": 0
    },
    {
        "deltaTime": 0,
        "channel": 0,
        "type": "channel",
        "subtype": "noteOff",
        "noteNumber": 54,
        "velocity": 0
    },
    {
        "deltaTime": 0,
        "channel": 0,
        "type": "channel",
        "noteNumber": 71,
        "velocity": 82,
        "subtype": "noteOn"
    },
    {
        "deltaTime": 0,
        "channel": 0,
        "type": "channel",
        "noteNumber": 42,
        "velocity": 71,
        "subtype": "noteOn"
    },
    {
        "deltaTime": 0,
        "channel": 0,
        "type": "channel",
        "noteNumber": 50,
        "velocity": 71,
        "subtype": "noteOn"
    },
    {
        "deltaTime": 0,
        "channel": 0,
        "type": "channel",
        "noteNumber": 54,
        "velocity": 71,
        "subtype": "noteOn"
    },
    {
        "deltaTime": 240,
        "channel": 0,
        "type": "channel",
        "subtype": "noteOff",
        "noteNumber": 71,
        "velocity": 0
    },
    {
        "deltaTime": 0,
        "channel": 0,
        "type": "channel",
        "noteNumber": 74,
        "velocity": 82,
        "subtype": "noteOn"
    },
    {
        "deltaTime": 240,
        "channel": 0,
        "type": "channel",
        "subtype": "noteOff",
        "noteNumber": 74,
        "velocity": 0
    },
    {
        "deltaTime": 0,
        "channel": 0,
        "type": "channel",
        "noteNumber": 71,
        "velocity": 82,
        "subtype": "noteOn"
    },
    {
        "deltaTime": 240,
        "channel": 0,
        "type": "channel",
        "subtype": "noteOff",
        "noteNumber": 71,
        "velocity": 0
    },
    {
        "deltaTime": 0,
        "channel": 0,
        "type": "channel",
        "noteNumber": 66,
        "velocity": 63,
        "subtype": "noteOn"
    },
    {
        "deltaTime": 240,
        "channel": 0,
        "type": "channel",
        "subtype": "noteOff",
        "noteNumber": 66,
        "velocity": 0
    },
    {
        "deltaTime": 0,
        "channel": 0,
        "type": "channel",
        "subtype": "noteOff",
        "noteNumber": 42,
        "velocity": 0
    },
    {
        "deltaTime": 0,
        "channel": 0,
        "type": "channel",
        "subtype": "noteOff",
        "noteNumber": 50,
        "velocity": 0
    },
    {
        "deltaTime": 0,
        "channel": 0,
        "type": "channel",
        "subtype": "noteOff",
        "noteNumber": 54,
        "velocity": 0
    },
    {
        "deltaTime": 0,
        "channel": 0,
        "type": "channel",
        "noteNumber": 62,
        "velocity": 60,
        "subtype": "noteOn"
    },
    {
        "deltaTime": 0,
        "channel": 0,
        "type": "channel",
        "noteNumber": 42,
        "velocity": 71,
        "subtype": "noteOn"
    },
    {
        "deltaTime": 0,
        "channel": 0,
        "type": "channel",
        "noteNumber": 50,
        "velocity": 71,
        "subtype": "noteOn"
    },
    {
        "deltaTime": 0,
        "channel": 0,
        "type": "channel",
        "noteNumber": 54,
        "velocity": 71,
        "subtype": "noteOn"
    },
    {
        "deltaTime": 240,
        "channel": 0,
        "type": "channel",
        "subtype": "noteOff",
        "noteNumber": 62,
        "velocity": 0
    },
    {
        "deltaTime": 0,
        "channel": 0,
        "type": "channel",
        "noteNumber": 66,
        "velocity": 67,
        "subtype": "noteOn"
    },
    {
        "deltaTime": 240,
        "channel": 0,
        "type": "channel",
        "subtype": "noteOff",
        "noteNumber": 66,
        "velocity": 0
    },
    {
        "deltaTime": 0,
        "channel": 0,
        "type": "channel",
        "noteNumber": 71,
        "velocity": 82,
        "subtype": "noteOn"
    },
    {
        "deltaTime": 240,
        "channel": 0,
        "type": "channel",
        "subtype": "noteOff",
        "noteNumber": 71,
        "velocity": 0
    },
    {
        "deltaTime": 0,
        "channel": 0,
        "type": "channel",
        "noteNumber": 66,
        "velocity": 65,
        "subtype": "noteOn"
    },
    {
        "deltaTime": 240,
        "channel": 0,
        "type": "channel",
        "subtype": "noteOff",
        "noteNumber": 66,
        "velocity": 0
    },
    {
        "deltaTime": 0,
        "channel": 0,
        "type": "channel",
        "subtype": "noteOff",
        "noteNumber": 42,
        "velocity": 0
    },
    {
        "deltaTime": 0,
        "channel": 0,
        "type": "channel",
        "subtype": "noteOff",
        "noteNumber": 50,
        "velocity": 0
    },
    {
        "deltaTime": 0,
        "channel": 0,
        "type": "channel",
        "subtype": "noteOff",
        "noteNumber": 54,
        "velocity": 0
    },
    {
        "deltaTime": 0,
        "channel": 0,
        "type": "channel",
        "noteNumber": 74,
        "velocity": 82,
        "subtype": "noteOn"
    },
    {
        "deltaTime": 0,
        "channel": 0,
        "type": "channel",
        "noteNumber": 42,
        "velocity": 71,
        "subtype": "noteOn"
    },
    {
        "deltaTime": 0,
        "channel": 0,
        "type": "channel",
        "noteNumber": 50,
        "velocity": 71,
        "subtype": "noteOn"
    },
    {
        "deltaTime": 0,
        "channel": 0,
        "type": "channel",
        "noteNumber": 54,
        "velocity": 71,
        "subtype": "noteOn"
    },
    {
        "deltaTime": 240,
        "channel": 0,
        "type": "channel",
        "subtype": "noteOff",
        "noteNumber": 74,
        "velocity": 0
    },
    {
        "deltaTime": 0,
        "channel": 0,
        "type": "channel",
        "noteNumber": 71,
        "velocity": 80,
        "subtype": "noteOn"
    },
    {
        "deltaTime": 240,
        "channel": 0,
        "type": "channel",
        "subtype": "noteOff",
        "noteNumber": 71,
        "velocity": 0
    },
    {
        "deltaTime": 0,
        "channel": 0,
        "type": "channel",
        "subtype": "noteOff",
        "noteNumber": 42,
        "velocity": 0
    },
    {
        "deltaTime": 0,
        "channel": 0,
        "type": "channel",
        "subtype": "noteOff",
        "noteNumber": 50,
        "velocity": 0
    },
    {
        "deltaTime": 0,
        "channel": 0,
        "type": "channel",
        "subtype": "noteOff",
        "noteNumber": 54,
        "velocity": 0
    },
    {
        "deltaTime": 0,
        "channel": 0,
        "type": "channel",
        "noteNumber": 73,
        "velocity": 82,
        "subtype": "noteOn"
    },
    {
        "deltaTime": 0,
        "channel": 0,
        "type": "channel",
        "noteNumber": 40,
        "velocity": 69,
        "subtype": "noteOn"
    },
    {
        "deltaTime": 0,
        "channel": 0,
        "type": "channel",
        "noteNumber": 52,
        "velocity": 69,
        "subtype": "noteOn"
    },
    {
        "deltaTime": 240,
        "channel": 0,
        "type": "channel",
        "subtype": "noteOff",
        "noteNumber": 73,
        "velocity": 0
    },
    {
        "deltaTime": 0,
        "channel": 0,
        "type": "channel",
        "noteNumber": 69,
        "velocity": 70,
        "subtype": "noteOn"
    },
    {
        "deltaTime": 240,
        "channel": 0,
        "type": "channel",
        "subtype": "noteOff",
        "noteNumber": 69,
        "velocity": 0
    },
    {
        "deltaTime": 0,
        "channel": 0,
        "type": "channel",
        "subtype": "noteOff",
        "noteNumber": 40,
        "velocity": 0
    },
    {
        "deltaTime": 0,
        "channel": 0,
        "type": "channel",
        "subtype": "noteOff",
        "noteNumber": 52,
        "velocity": 0
    },
    {
        "deltaTime": 0,
        "channel": 0,
        "type": "channel",
        "noteNumber": 64,
        "velocity": 60,
        "subtype": "noteOn"
    },
    {
        "deltaTime": 240,
        "channel": 0,
        "type": "channel",
        "subtype": "noteOff",
        "noteNumber": 64,
        "velocity": 0
    },
    {
        "deltaTime": 0,
        "channel": 0,
        "type": "channel",
        "noteNumber": 61,
        "velocity": 60,
        "subtype": "noteOn"
    },
    {
        "deltaTime": 240,
        "channel": 0,
        "type": "channel",
        "subtype": "noteOff",
        "noteNumber": 61,
        "velocity": 0
    },
    {
        "deltaTime": 0,
        "channel": 0,
        "type": "channel",
        "noteNumber": 57,
        "velocity": 60,
        "subtype": "noteOn"
    },
    {
        "deltaTime": 0,
        "channel": 0,
        "type": "channel",
        "noteNumber": 40,
        "velocity": 70,
        "subtype": "noteOn"
    },
    {
        "deltaTime": 0,
        "channel": 0,
        "type": "channel",
        "noteNumber": 52,
        "velocity": 70,
        "subtype": "noteOn"
    },
    {
        "deltaTime": 240,
        "channel": 0,
        "type": "channel",
        "subtype": "noteOff",
        "noteNumber": 57,
        "velocity": 0
    },
    {
        "deltaTime": 0,
        "channel": 0,
        "type": "channel",
        "noteNumber": 61,
        "velocity": 60,
        "subtype": "noteOn"
    },
    {
        "deltaTime": 240,
        "channel": 0,
        "type": "channel",
        "subtype": "noteOff",
        "noteNumber": 61,
        "velocity": 0
    },
    {
        "deltaTime": 0,
        "channel": 0,
        "type": "channel",
        "subtype": "noteOff",
        "noteNumber": 40,
        "velocity": 0
    },
    {
        "deltaTime": 0,
        "channel": 0,
        "type": "channel",
        "subtype": "noteOff",
        "noteNumber": 52,
        "velocity": 0
    },
    {
        "deltaTime": 0,
        "channel": 0,
        "type": "channel",
        "noteNumber": 64,
        "velocity": 66,
        "subtype": "noteOn"
    },
    {
        "deltaTime": 240,
        "channel": 0,
        "type": "channel",
        "subtype": "noteOff",
        "noteNumber": 64,
        "velocity": 0
    },
    {
        "deltaTime": 0,
        "channel": 0,
        "type": "channel",
        "noteNumber": 69,
        "velocity": 82,
        "subtype": "noteOn"
    },
    {
        "deltaTime": 240,
        "channel": 0,
        "type": "channel",
        "subtype": "noteOff",
        "noteNumber": 69,
        "velocity": 0
    },
    {
        "deltaTime": 0,
        "channel": 0,
        "type": "channel",
        "noteNumber": 64,
        "velocity": 82,
        "subtype": "noteOn"
    },
    {
        "deltaTime": 0,
        "channel": 0,
        "type": "channel",
        "noteNumber": 68,
        "velocity": 82,
        "subtype": "noteOn"
    },
    {
        "deltaTime": 0,
        "channel": 0,
        "type": "channel",
        "noteNumber": 71,
        "velocity": 82,
        "subtype": "noteOn"
    },
    {
        "deltaTime": 0,
        "channel": 0,
        "type": "channel",
        "noteNumber": 40,
        "velocity": 71,
        "subtype": "noteOn"
    },
    {
        "deltaTime": 0,
        "channel": 0,
        "type": "channel",
        "noteNumber": 52,
        "velocity": 71,
        "subtype": "noteOn"
    },
    {
        "deltaTime": 1920,
        "channel": 0,
        "type": "channel",
        "subtype": "noteOff",
        "noteNumber": 64,
        "velocity": 0
    },
    {
        "deltaTime": 0,
        "channel": 0,
        "type": "channel",
        "subtype": "noteOff",
        "noteNumber": 68,
        "velocity": 0
    },
    {
        "deltaTime": 0,
        "channel": 0,
        "type": "channel",
        "subtype": "noteOff",
        "noteNumber": 71,
        "velocity": 0
    },
    {
        "deltaTime": 0,
        "channel": 0,
        "type": "channel",
        "subtype": "noteOff",
        "noteNumber": 40,
        "velocity": 0
    },
    {
        "deltaTime": 0,
        "channel": 0,
        "type": "channel",
        "subtype": "noteOff",
        "noteNumber": 52,
        "velocity": 0
    },
    {
        "deltaTime": 0,
        "channel": 0,
        "type": "channel",
        "noteNumber": 66,
        "velocity": 94,
        "subtype": "noteOn"
    },
    {
        "deltaTime": 0,
        "channel": 0,
        "type": "channel",
        "noteNumber": 69,
        "velocity": 94,
        "subtype": "noteOn"
    },
    {
        "deltaTime": 0,
        "channel": 0,
        "type": "channel",
        "noteNumber": 73,
        "velocity": 94,
        "subtype": "noteOn"
    },
    {
        "deltaTime": 0,
        "channel": 0,
        "type": "channel",
        "noteNumber": 42,
        "velocity": 72,
        "subtype": "noteOn"
    },
    {
        "deltaTime": 0,
        "channel": 0,
        "type": "channel",
        "noteNumber": 54,
        "velocity": 72,
        "subtype": "noteOn"
    },
    {
        "deltaTime": 240,
        "channel": 0,
        "type": "channel",
        "subtype": "noteOff",
        "noteNumber": 66,
        "velocity": 0
    },
    {
        "deltaTime": 0,
        "channel": 0,
        "type": "channel",
        "subtype": "noteOff",
        "noteNumber": 69,
        "velocity": 0
    },
    {
        "deltaTime": 0,
        "channel": 0,
        "type": "channel",
        "subtype": "noteOff",
        "noteNumber": 73,
        "velocity": 0
    },
    {
        "deltaTime": 240,
        "channel": 0,
        "type": "channel",
        "noteNumber": 66,
        "velocity": 75,
        "subtype": "noteOn"
    },
    {
        "deltaTime": 0,
        "channel": 0,
        "type": "channel",
        "noteNumber": 69,
        "velocity": 75,
        "subtype": "noteOn"
    },
    {
        "deltaTime": 0,
        "channel": 0,
        "type": "channel",
        "noteNumber": 73,
        "velocity": 75,
        "subtype": "noteOn"
    },
    {
        "deltaTime": 240,
        "channel": 0,
        "type": "channel",
        "subtype": "noteOff",
        "noteNumber": 66,
        "velocity": 0
    },
    {
        "deltaTime": 0,
        "channel": 0,
        "type": "channel",
        "subtype": "noteOff",
        "noteNumber": 69,
        "velocity": 0
    },
    {
        "deltaTime": 0,
        "channel": 0,
        "type": "channel",
        "subtype": "noteOff",
        "noteNumber": 73,
        "velocity": 0
    },
    {
        "deltaTime": 240,
        "channel": 0,
        "type": "channel",
        "noteNumber": 66,
        "velocity": 73,
        "subtype": "noteOn"
    },
    {
        "deltaTime": 0,
        "channel": 0,
        "type": "channel",
        "noteNumber": 69,
        "velocity": 73,
        "subtype": "noteOn"
    },
    {
        "deltaTime": 0,
        "channel": 0,
        "type": "channel",
        "noteNumber": 73,
        "velocity": 73,
        "subtype": "noteOn"
    },
    {
        "deltaTime": 240,
        "channel": 0,
        "type": "channel",
        "subtype": "noteOff",
        "noteNumber": 66,
        "velocity": 0
    },
    {
        "deltaTime": 0,
        "channel": 0,
        "type": "channel",
        "subtype": "noteOff",
        "noteNumber": 69,
        "velocity": 0
    },
    {
        "deltaTime": 0,
        "channel": 0,
        "type": "channel",
        "subtype": "noteOff",
        "noteNumber": 73,
        "velocity": 0
    },
    {
        "deltaTime": 240,
        "channel": 0,
        "type": "channel",
        "noteNumber": 66,
        "velocity": 72,
        "subtype": "noteOn"
    },
    {
        "deltaTime": 0,
        "channel": 0,
        "type": "channel",
        "noteNumber": 69,
        "velocity": 72,
        "subtype": "noteOn"
    },
    {
        "deltaTime": 0,
        "channel": 0,
        "type": "channel",
        "noteNumber": 73,
        "velocity": 72,
        "subtype": "noteOn"
    },
    {
        "deltaTime": 240,
        "channel": 0,
        "type": "channel",
        "subtype": "noteOff",
        "noteNumber": 66,
        "velocity": 0
    },
    {
        "deltaTime": 0,
        "channel": 0,
        "type": "channel",
        "subtype": "noteOff",
        "noteNumber": 69,
        "velocity": 0
    },
    {
        "deltaTime": 0,
        "channel": 0,
        "type": "channel",
        "subtype": "noteOff",
        "noteNumber": 73,
        "velocity": 0
    },
    {
        "deltaTime": 240,
        "channel": 0,
        "type": "channel",
        "noteNumber": 66,
        "velocity": 86,
        "subtype": "noteOn"
    },
    {
        "deltaTime": 0,
        "channel": 0,
        "type": "channel",
        "noteNumber": 69,
        "velocity": 86,
        "subtype": "noteOn"
    },
    {
        "deltaTime": 0,
        "channel": 0,
        "type": "channel",
        "noteNumber": 73,
        "velocity": 86,
        "subtype": "noteOn"
    },
    {
        "deltaTime": 240,
        "channel": 0,
        "type": "channel",
        "subtype": "noteOff",
        "noteNumber": 66,
        "velocity": 0
    },
    {
        "deltaTime": 0,
        "channel": 0,
        "type": "channel",
        "subtype": "noteOff",
        "noteNumber": 69,
        "velocity": 0
    },
    {
        "deltaTime": 0,
        "channel": 0,
        "type": "channel",
        "subtype": "noteOff",
        "noteNumber": 73,
        "velocity": 0
    },
    {
        "deltaTime": 240,
        "channel": 0,
        "type": "channel",
        "noteNumber": 66,
        "velocity": 71,
        "subtype": "noteOn"
    },
    {
        "deltaTime": 0,
        "channel": 0,
        "type": "channel",
        "noteNumber": 69,
        "velocity": 71,
        "subtype": "noteOn"
    },
    {
        "deltaTime": 0,
        "channel": 0,
        "type": "channel",
        "noteNumber": 73,
        "velocity": 71,
        "subtype": "noteOn"
    },
    {
        "deltaTime": 240,
        "channel": 0,
        "type": "channel",
        "subtype": "noteOff",
        "noteNumber": 66,
        "velocity": 0
    },
    {
        "deltaTime": 0,
        "channel": 0,
        "type": "channel",
        "subtype": "noteOff",
        "noteNumber": 69,
        "velocity": 0
    },
    {
        "deltaTime": 0,
        "channel": 0,
        "type": "channel",
        "subtype": "noteOff",
        "noteNumber": 73,
        "velocity": 0
    },
    {
        "deltaTime": 240,
        "channel": 0,
        "type": "channel",
        "noteNumber": 66,
        "velocity": 71,
        "subtype": "noteOn"
    },
    {
        "deltaTime": 0,
        "channel": 0,
        "type": "channel",
        "noteNumber": 69,
        "velocity": 71,
        "subtype": "noteOn"
    },
    {
        "deltaTime": 0,
        "channel": 0,
        "type": "channel",
        "noteNumber": 73,
        "velocity": 71,
        "subtype": "noteOn"
    },
    {
        "deltaTime": 240,
        "channel": 0,
        "type": "channel",
        "subtype": "noteOff",
        "noteNumber": 66,
        "velocity": 0
    },
    {
        "deltaTime": 0,
        "channel": 0,
        "type": "channel",
        "subtype": "noteOff",
        "noteNumber": 69,
        "velocity": 0
    },
    {
        "deltaTime": 0,
        "channel": 0,
        "type": "channel",
        "subtype": "noteOff",
        "noteNumber": 73,
        "velocity": 0
    },
    {
        "deltaTime": 240,
        "channel": 0,
        "type": "channel",
        "noteNumber": 66,
        "velocity": 85,
        "subtype": "noteOn"
    },
    {
        "deltaTime": 0,
        "channel": 0,
        "type": "channel",
        "noteNumber": 69,
        "velocity": 85,
        "subtype": "noteOn"
    },
    {
        "deltaTime": 0,
        "channel": 0,
        "type": "channel",
        "noteNumber": 73,
        "velocity": 85,
        "subtype": "noteOn"
    },
    {
        "deltaTime": 240,
        "channel": 0,
        "type": "channel",
        "subtype": "noteOff",
        "noteNumber": 66,
        "velocity": 0
    },
    {
        "deltaTime": 0,
        "channel": 0,
        "type": "channel",
        "subtype": "noteOff",
        "noteNumber": 69,
        "velocity": 0
    },
    {
        "deltaTime": 0,
        "channel": 0,
        "type": "channel",
        "subtype": "noteOff",
        "noteNumber": 73,
        "velocity": 0
    },
    {
        "deltaTime": 240,
        "channel": 0,
        "type": "channel",
        "subtype": "noteOff",
        "noteNumber": 42,
        "velocity": 0
    },
    {
        "deltaTime": 0,
        "channel": 0,
        "type": "channel",
        "subtype": "noteOff",
        "noteNumber": 54,
        "velocity": 0
    },
    {
        "deltaTime": 0,
        "channel": 0,
        "type": "channel",
        "noteNumber": 66,
        "velocity": 75,
        "subtype": "noteOn"
    },
    {
        "deltaTime": 0,
        "channel": 0,
        "type": "channel",
        "noteNumber": 71,
        "velocity": 75,
        "subtype": "noteOn"
    },
    {
        "deltaTime": 0,
        "channel": 0,
        "type": "channel",
        "noteNumber": 75,
        "velocity": 75,
        "subtype": "noteOn"
    },
    {
        "deltaTime": 0,
        "channel": 0,
        "type": "channel",
        "noteNumber": 42,
        "velocity": 71,
        "subtype": "noteOn"
    },
    {
        "deltaTime": 0,
        "channel": 0,
        "type": "channel",
        "noteNumber": 51,
        "velocity": 71,
        "subtype": "noteOn"
    },
    {
        "deltaTime": 0,
        "channel": 0,
        "type": "channel",
        "noteNumber": 54,
        "velocity": 71,
        "subtype": "noteOn"
    },
    {
        "deltaTime": 240,
        "channel": 0,
        "type": "channel",
        "subtype": "noteOff",
        "noteNumber": 66,
        "velocity": 0
    },
    {
        "deltaTime": 0,
        "channel": 0,
        "type": "channel",
        "subtype": "noteOff",
        "noteNumber": 71,
        "velocity": 0
    },
    {
        "deltaTime": 0,
        "channel": 0,
        "type": "channel",
        "subtype": "noteOff",
        "noteNumber": 75,
        "velocity": 0
    },
    {
        "deltaTime": 240,
        "channel": 0,
        "type": "channel",
        "noteNumber": 66,
        "velocity": 88,
        "subtype": "noteOn"
    },
    {
        "deltaTime": 0,
        "channel": 0,
        "type": "channel",
        "noteNumber": 71,
        "velocity": 88,
        "subtype": "noteOn"
    },
    {
        "deltaTime": 0,
        "channel": 0,
        "type": "channel",
        "noteNumber": 75,
        "velocity": 88,
        "subtype": "noteOn"
    },
    {
        "deltaTime": 240,
        "channel": 0,
        "type": "channel",
        "subtype": "noteOff",
        "noteNumber": 66,
        "velocity": 0
    },
    {
        "deltaTime": 0,
        "channel": 0,
        "type": "channel",
        "subtype": "noteOff",
        "noteNumber": 71,
        "velocity": 0
    },
    {
        "deltaTime": 0,
        "channel": 0,
        "type": "channel",
        "subtype": "noteOff",
        "noteNumber": 75,
        "velocity": 0
    },
    {
        "deltaTime": 240,
        "channel": 0,
        "type": "channel",
        "noteNumber": 66,
        "velocity": 73,
        "subtype": "noteOn"
    },
    {
        "deltaTime": 0,
        "channel": 0,
        "type": "channel",
        "noteNumber": 71,
        "velocity": 73,
        "subtype": "noteOn"
    },
    {
        "deltaTime": 0,
        "channel": 0,
        "type": "channel",
        "noteNumber": 75,
        "velocity": 73,
        "subtype": "noteOn"
    },
    {
        "deltaTime": 240,
        "channel": 0,
        "type": "channel",
        "subtype": "noteOff",
        "noteNumber": 66,
        "velocity": 0
    },
    {
        "deltaTime": 0,
        "channel": 0,
        "type": "channel",
        "subtype": "noteOff",
        "noteNumber": 71,
        "velocity": 0
    },
    {
        "deltaTime": 0,
        "channel": 0,
        "type": "channel",
        "subtype": "noteOff",
        "noteNumber": 75,
        "velocity": 0
    },
    {
        "deltaTime": 240,
        "channel": 0,
        "type": "channel",
        "noteNumber": 66,
        "velocity": 72,
        "subtype": "noteOn"
    },
    {
        "deltaTime": 0,
        "channel": 0,
        "type": "channel",
        "noteNumber": 71,
        "velocity": 72,
        "subtype": "noteOn"
    },
    {
        "deltaTime": 0,
        "channel": 0,
        "type": "channel",
        "noteNumber": 75,
        "velocity": 72,
        "subtype": "noteOn"
    },
    {
        "deltaTime": 240,
        "channel": 0,
        "type": "channel",
        "subtype": "noteOff",
        "noteNumber": 66,
        "velocity": 0
    },
    {
        "deltaTime": 0,
        "channel": 0,
        "type": "channel",
        "subtype": "noteOff",
        "noteNumber": 71,
        "velocity": 0
    },
    {
        "deltaTime": 0,
        "channel": 0,
        "type": "channel",
        "subtype": "noteOff",
        "noteNumber": 75,
        "velocity": 0
    },
    {
        "deltaTime": 240,
        "channel": 0,
        "type": "channel",
        "noteNumber": 66,
        "velocity": 86,
        "subtype": "noteOn"
    },
    {
        "deltaTime": 0,
        "channel": 0,
        "type": "channel",
        "noteNumber": 71,
        "velocity": 86,
        "subtype": "noteOn"
    },
    {
        "deltaTime": 0,
        "channel": 0,
        "type": "channel",
        "noteNumber": 75,
        "velocity": 86,
        "subtype": "noteOn"
    },
    {
        "deltaTime": 240,
        "channel": 0,
        "type": "channel",
        "subtype": "noteOff",
        "noteNumber": 66,
        "velocity": 0
    },
    {
        "deltaTime": 0,
        "channel": 0,
        "type": "channel",
        "subtype": "noteOff",
        "noteNumber": 71,
        "velocity": 0
    },
    {
        "deltaTime": 0,
        "channel": 0,
        "type": "channel",
        "subtype": "noteOff",
        "noteNumber": 75,
        "velocity": 0
    },
    {
        "deltaTime": 240,
        "channel": 0,
        "type": "channel",
        "noteNumber": 66,
        "velocity": 72,
        "subtype": "noteOn"
    },
    {
        "deltaTime": 0,
        "channel": 0,
        "type": "channel",
        "noteNumber": 71,
        "velocity": 72,
        "subtype": "noteOn"
    },
    {
        "deltaTime": 0,
        "channel": 0,
        "type": "channel",
        "noteNumber": 75,
        "velocity": 72,
        "subtype": "noteOn"
    },
    {
        "deltaTime": 240,
        "channel": 0,
        "type": "channel",
        "subtype": "noteOff",
        "noteNumber": 66,
        "velocity": 0
    },
    {
        "deltaTime": 0,
        "channel": 0,
        "type": "channel",
        "subtype": "noteOff",
        "noteNumber": 71,
        "velocity": 0
    },
    {
        "deltaTime": 0,
        "channel": 0,
        "type": "channel",
        "subtype": "noteOff",
        "noteNumber": 75,
        "velocity": 0
    },
    {
        "deltaTime": 240,
        "channel": 0,
        "type": "channel",
        "noteNumber": 66,
        "velocity": 71,
        "subtype": "noteOn"
    },
    {
        "deltaTime": 0,
        "channel": 0,
        "type": "channel",
        "noteNumber": 71,
        "velocity": 71,
        "subtype": "noteOn"
    },
    {
        "deltaTime": 0,
        "channel": 0,
        "type": "channel",
        "noteNumber": 75,
        "velocity": 71,
        "subtype": "noteOn"
    },
    {
        "deltaTime": 240,
        "channel": 0,
        "type": "channel",
        "subtype": "noteOff",
        "noteNumber": 66,
        "velocity": 0
    },
    {
        "deltaTime": 0,
        "channel": 0,
        "type": "channel",
        "subtype": "noteOff",
        "noteNumber": 71,
        "velocity": 0
    },
    {
        "deltaTime": 0,
        "channel": 0,
        "type": "channel",
        "subtype": "noteOff",
        "noteNumber": 75,
        "velocity": 0
    },
    {
        "deltaTime": 240,
        "channel": 0,
        "type": "channel",
        "noteNumber": 66,
        "velocity": 85,
        "subtype": "noteOn"
    },
    {
        "deltaTime": 0,
        "channel": 0,
        "type": "channel",
        "noteNumber": 71,
        "velocity": 85,
        "subtype": "noteOn"
    },
    {
        "deltaTime": 0,
        "channel": 0,
        "type": "channel",
        "noteNumber": 75,
        "velocity": 85,
        "subtype": "noteOn"
    },
    {
        "deltaTime": 240,
        "channel": 0,
        "type": "channel",
        "subtype": "noteOff",
        "noteNumber": 66,
        "velocity": 0
    },
    {
        "deltaTime": 0,
        "channel": 0,
        "type": "channel",
        "subtype": "noteOff",
        "noteNumber": 71,
        "velocity": 0
    },
    {
        "deltaTime": 0,
        "channel": 0,
        "type": "channel",
        "subtype": "noteOff",
        "noteNumber": 75,
        "velocity": 0
    },
    {
        "deltaTime": 240,
        "channel": 0,
        "type": "channel",
        "subtype": "noteOff",
        "noteNumber": 42,
        "velocity": 0
    },
    {
        "deltaTime": 0,
        "channel": 0,
        "type": "channel",
        "subtype": "noteOff",
        "noteNumber": 51,
        "velocity": 0
    },
    {
        "deltaTime": 0,
        "channel": 0,
        "type": "channel",
        "subtype": "noteOff",
        "noteNumber": 54,
        "velocity": 0
    },
    {
        "deltaTime": 0,
        "channel": 0,
        "type": "channel",
        "noteNumber": 66,
        "velocity": 69,
        "subtype": "noteOn"
    },
    {
        "deltaTime": 0,
        "channel": 0,
        "type": "channel",
        "noteNumber": 71,
        "velocity": 69,
        "subtype": "noteOn"
    },
    {
        "deltaTime": 0,
        "channel": 0,
        "type": "channel",
        "noteNumber": 74,
        "velocity": 69,
        "subtype": "noteOn"
    },
    {
        "deltaTime": 0,
        "channel": 0,
        "type": "channel",
        "noteNumber": 42,
        "velocity": 71,
        "subtype": "noteOn"
    },
    {
        "deltaTime": 0,
        "channel": 0,
        "type": "channel",
        "noteNumber": 50,
        "velocity": 71,
        "subtype": "noteOn"
    },
    {
        "deltaTime": 0,
        "channel": 0,
        "type": "channel",
        "noteNumber": 54,
        "velocity": 71,
        "subtype": "noteOn"
    },
    {
        "deltaTime": 240,
        "channel": 0,
        "type": "channel",
        "subtype": "noteOff",
        "noteNumber": 66,
        "velocity": 0
    },
    {
        "deltaTime": 0,
        "channel": 0,
        "type": "channel",
        "subtype": "noteOff",
        "noteNumber": 71,
        "velocity": 0
    },
    {
        "deltaTime": 0,
        "channel": 0,
        "type": "channel",
        "subtype": "noteOff",
        "noteNumber": 74,
        "velocity": 0
    },
    {
        "deltaTime": 240,
        "channel": 0,
        "type": "channel",
        "noteNumber": 66,
        "velocity": 84,
        "subtype": "noteOn"
    },
    {
        "deltaTime": 0,
        "channel": 0,
        "type": "channel",
        "noteNumber": 71,
        "velocity": 84,
        "subtype": "noteOn"
    },
    {
        "deltaTime": 0,
        "channel": 0,
        "type": "channel",
        "noteNumber": 74,
        "velocity": 84,
        "subtype": "noteOn"
    },
    {
        "deltaTime": 240,
        "channel": 0,
        "type": "channel",
        "subtype": "noteOff",
        "noteNumber": 66,
        "velocity": 0
    },
    {
        "deltaTime": 0,
        "channel": 0,
        "type": "channel",
        "subtype": "noteOff",
        "noteNumber": 71,
        "velocity": 0
    },
    {
        "deltaTime": 0,
        "channel": 0,
        "type": "channel",
        "subtype": "noteOff",
        "noteNumber": 74,
        "velocity": 0
    },
    {
        "deltaTime": 240,
        "channel": 0,
        "type": "channel",
        "noteNumber": 66,
        "velocity": 70,
        "subtype": "noteOn"
    },
    {
        "deltaTime": 0,
        "channel": 0,
        "type": "channel",
        "noteNumber": 71,
        "velocity": 70,
        "subtype": "noteOn"
    },
    {
        "deltaTime": 0,
        "channel": 0,
        "type": "channel",
        "noteNumber": 74,
        "velocity": 70,
        "subtype": "noteOn"
    },
    {
        "deltaTime": 240,
        "channel": 0,
        "type": "channel",
        "subtype": "noteOff",
        "noteNumber": 66,
        "velocity": 0
    },
    {
        "deltaTime": 0,
        "channel": 0,
        "type": "channel",
        "subtype": "noteOff",
        "noteNumber": 71,
        "velocity": 0
    },
    {
        "deltaTime": 0,
        "channel": 0,
        "type": "channel",
        "subtype": "noteOff",
        "noteNumber": 74,
        "velocity": 0
    },
    {
        "deltaTime": 240,
        "channel": 0,
        "type": "channel",
        "noteNumber": 66,
        "velocity": 71,
        "subtype": "noteOn"
    },
    {
        "deltaTime": 0,
        "channel": 0,
        "type": "channel",
        "noteNumber": 71,
        "velocity": 71,
        "subtype": "noteOn"
    },
    {
        "deltaTime": 0,
        "channel": 0,
        "type": "channel",
        "noteNumber": 74,
        "velocity": 71,
        "subtype": "noteOn"
    },
    {
        "deltaTime": 2400,
        "channel": 0,
        "type": "channel",
        "subtype": "noteOff",
        "noteNumber": 66,
        "velocity": 0
    },
    {
        "deltaTime": 0,
        "channel": 0,
        "type": "channel",
        "subtype": "noteOff",
        "noteNumber": 71,
        "velocity": 0
    },
    {
        "deltaTime": 0,
        "channel": 0,
        "type": "channel",
        "subtype": "noteOff",
        "noteNumber": 74,
        "velocity": 0
    },
    {
        "deltaTime": 0,
        "channel": 0,
        "type": "channel",
        "subtype": "noteOff",
        "noteNumber": 42,
        "velocity": 0
    },
    {
        "deltaTime": 0,
        "channel": 0,
        "type": "channel",
        "subtype": "noteOff",
        "noteNumber": 50,
        "velocity": 0
    },
    {
        "deltaTime": 0,
        "channel": 0,
        "type": "channel",
        "subtype": "noteOff",
        "noteNumber": 54,
        "velocity": 0
    },
    {
        "deltaTime": 0,
        "channel": 0,
        "type": "channel",
        "noteNumber": 65,
        "velocity": 71,
        "subtype": "noteOn"
    },
    {
        "deltaTime": 0,
        "channel": 0,
        "type": "channel",
        "noteNumber": 41,
        "velocity": 71,
        "subtype": "noteOn"
    },
    {
        "deltaTime": 128,
        "channel": 0,
        "type": "channel",
        "noteNumber": 71,
        "velocity": 71,
        "subtype": "noteOn"
    },
    {
        "deltaTime": 0,
        "channel": 0,
        "type": "channel",
        "noteNumber": 53,
        "velocity": 71,
        "subtype": "noteOn"
    },
    {
        "deltaTime": 127,
        "channel": 0,
        "type": "channel",
        "noteNumber": 74,
        "velocity": 71,
        "subtype": "noteOn"
    },
    {
        "deltaTime": 3585,
        "channel": 0,
        "type": "channel",
        "subtype": "noteOff",
        "noteNumber": 65,
        "velocity": 0
    },
    {
        "deltaTime": 0,
        "channel": 0,
        "type": "channel",
        "subtype": "noteOff",
        "noteNumber": 71,
        "velocity": 0
    },
    {
        "deltaTime": 0,
        "channel": 0,
        "type": "channel",
        "subtype": "noteOff",
        "noteNumber": 74,
        "velocity": 0
    },
    {
        "deltaTime": 0,
        "channel": 0,
        "type": "channel",
        "subtype": "noteOff",
        "noteNumber": 41,
        "velocity": 0
    },
    {
        "deltaTime": 0,
        "channel": 0,
        "type": "channel",
        "subtype": "noteOff",
        "noteNumber": 53,
        "velocity": 0
    },
    {
        "deltaTime": 0,
        "channel": 0,
        "type": "channel",
        "noteNumber": 85,
        "velocity": 61,
        "subtype": "noteOn"
    },
    {
        "deltaTime": 0,
        "channel": 0,
        "type": "channel",
        "noteNumber": 45,
        "velocity": 61,
        "subtype": "noteOn"
    },
    {
        "deltaTime": 0,
        "channel": 0,
        "type": "channel",
        "noteNumber": 57,
        "velocity": 61,
        "subtype": "noteOn"
    },
    {
        "deltaTime": 128,
        "channel": 0,
        "type": "channel",
        "noteNumber": 88,
        "velocity": 61,
        "subtype": "noteOn"
    },
    {
        "deltaTime": 127,
        "channel": 0,
        "type": "channel",
        "noteNumber": 93,
        "velocity": 61,
        "subtype": "noteOn"
    },
    {
        "deltaTime": 705,
        "channel": 0,
        "type": "channel",
        "subtype": "noteOff",
        "noteNumber": 85,
        "velocity": 0
    },
    {
        "deltaTime": 0,
        "channel": 0,
        "type": "channel",
        "subtype": "noteOff",
        "noteNumber": 88,
        "velocity": 0
    },
    {
        "deltaTime": 0,
        "channel": 0,
        "type": "channel",
        "subtype": "noteOff",
        "noteNumber": 93,
        "velocity": 0
    },
    {
        "deltaTime": 2880,
        "channel": 0,
        "type": "channel",
        "subtype": "noteOff",
        "noteNumber": 45,
        "velocity": 0
    },
    {
        "deltaTime": 0,
        "channel": 0,
        "type": "channel",
        "subtype": "noteOff",
        "noteNumber": 57,
        "velocity": 0
    },
    {
        "deltaTime": 0,
        "channel": 0,
        "type": "channel",
        "noteNumber": 87,
        "velocity": 61,
        "subtype": "noteOn"
    },
    {
        "deltaTime": 128,
        "channel": 0,
        "type": "channel",
        "noteNumber": 90,
        "velocity": 61,
        "subtype": "noteOn"
    },
    {
        "deltaTime": 127,
        "channel": 0,
        "type": "channel",
        "noteNumber": 93,
        "velocity": 61,
        "subtype": "noteOn"
    },
    {
        "deltaTime": 705,
        "channel": 0,
        "type": "channel",
        "subtype": "noteOff",
        "noteNumber": 87,
        "velocity": 0
    },
    {
        "deltaTime": 0,
        "channel": 0,
        "type": "channel",
        "subtype": "noteOff",
        "noteNumber": 90,
        "velocity": 0
    },
    {
        "deltaTime": 0,
        "channel": 0,
        "type": "channel",
        "subtype": "noteOff",
        "noteNumber": 93,
        "velocity": 0
    },
    {
        "deltaTime": 2880,
        "channel": 0,
        "type": "channel",
        "noteNumber": 86,
        "velocity": 61,
        "subtype": "noteOn"
    },
    {
        "deltaTime": 124,
        "channel": 0,
        "type": "channel",
        "noteNumber": 90,
        "velocity": 61,
        "subtype": "noteOn"
    },
    {
        "deltaTime": 124,
        "channel": 0,
        "type": "channel",
        "noteNumber": 93,
        "velocity": 61,
        "subtype": "noteOn"
    },
    {
        "deltaTime": 712,
        "channel": 0,
        "type": "channel",
        "subtype": "noteOff",
        "noteNumber": 86,
        "velocity": 0
    },
    {
        "deltaTime": 0,
        "channel": 0,
        "type": "channel",
        "subtype": "noteOff",
        "noteNumber": 90,
        "velocity": 0
    },
    {
        "deltaTime": 0,
        "channel": 0,
        "type": "channel",
        "subtype": "noteOff",
        "noteNumber": 93,
        "velocity": 0
    },
    {
        "deltaTime": 960,
        "channel": 0,
        "type": "channel",
        "noteNumber": 86,
        "velocity": 61,
        "subtype": "noteOn"
    },
    {
        "deltaTime": 116,
        "channel": 0,
        "type": "channel",
        "noteNumber": 89,
        "velocity": 61,
        "subtype": "noteOn"
    },
    {
        "deltaTime": 117,
        "channel": 0,
        "type": "channel",
        "noteNumber": 93,
        "velocity": 61,
        "subtype": "noteOn"
    },
    {
        "deltaTime": 727,
        "channel": 0,
        "type": "channel",
        "subtype": "noteOff",
        "noteNumber": 86,
        "velocity": 0
    },
    {
        "deltaTime": 0,
        "channel": 0,
        "type": "channel",
        "subtype": "noteOff",
        "noteNumber": 89,
        "velocity": 0
    },
    {
        "deltaTime": 0,
        "channel": 0,
        "type": "channel",
        "subtype": "noteOff",
        "noteNumber": 93,
        "velocity": 0
    },
    {
        "deltaTime": 960,
        "channel": 0,
        "type": "channel",
        "noteNumber": 69,
        "velocity": 59,
        "subtype": "noteOn"
    },
    {
        "deltaTime": 109,
        "channel": 0,
        "type": "channel",
        "noteNumber": 73,
        "velocity": 59,
        "subtype": "noteOn"
    },
    {
        "deltaTime": 109,
        "channel": 0,
        "type": "channel",
        "noteNumber": 76,
        "velocity": 59,
        "subtype": "noteOn"
    },
    {
        "deltaTime": 108,
        "channel": 0,
        "type": "channel",
        "noteNumber": 81,
        "velocity": 59,
        "subtype": "noteOn"
    },
    {
        "deltaTime": 3514,
        "channel": 0,
        "type": "channel",
        "subtype": "noteOff",
        "noteNumber": 69,
        "velocity": 0
    },
    {
        "deltaTime": 0,
        "channel": 0,
        "type": "channel",
        "subtype": "noteOff",
        "noteNumber": 73,
        "velocity": 0
    },
    {
        "deltaTime": 0,
        "channel": 0,
        "type": "channel",
        "subtype": "noteOff",
        "noteNumber": 76,
        "velocity": 0
    },
    {
        "deltaTime": 0,
        "channel": 0,
        "type": "channel",
        "subtype": "noteOff",
        "noteNumber": 81,
        "velocity": 0
    },
    {
        "deltaTime": 1,
        "type": "meta",
        "subtype": "endOfTrack"
    }
]